<svg width="121" height="121" xmlns="http://www.w3.org/2000/svg" xmlns:xlink="http://www.w3.org/1999/xlink" xml:space="preserve" overflow="hidden"><defs><clipPath id="clip0"><rect x="639" y="51" width="121" height="121"/></clipPath></defs><g clip-path="url(#clip0)" transform="translate(-639 -51)"><path d="M759.04 111.131C759.04 145.165 732.218 172.755 699.131 172.755 666.045 172.755 639.223 145.165 639.223 111.131 639.223 77.0972 666.045 49.5073 699.131 49.5073 732.218 49.5073 759.04 77.0972 759.04 111.131Z" fill="#FFFFFF"/><path d="M675.59 108.024C675.59 108.024 663.781 110.655 663.715 112.315 663.648 113.973 667.022 117.356 686.199 118.55 705.376 119.744 668.093 119.076 659.867 114.401 651.642 109.728 675.59 108.024 675.59 108.024Z" fill="#0071B3" fill-rule="evenodd"/><path d="M724.409 108.412C724.409 108.412 738.385 110.477 736.262 114.132 734.14 117.788 713.33 118.672 713.33 118.672 713.33 118.672 733.609 119.043 740.065 114.789 746.522 110.535 725.914 108.501 724.409 108.412Z" fill="#0071B3" fill-rule="evenodd"/><path d="M646.335 97.7608 654.09 99.3558 653.728 101.116 645.972 99.5209Z"/><path d="M654.296 98.0439 646.783 95.5408 647.445 93.5566 650.718 92.9144C651.657 92.7322 652.743 92.5986 653.701 92.5461L653.712 92.5121C652.684 92.2932 651.657 91.9891 650.533 91.6143L648.336 90.8817 648.857 89.3208 656.369 91.8253 655.774 93.6077 652.342 94.2472C651.391 94.4255 650.258 94.5932 649.254 94.6666L649.254 94.7046C650.26 94.9903 651.327 95.3206 652.554 95.7295L654.816 96.4831 654.296 98.0439Z"/><path d="M655.302 89.7926C655.741 89.4755 656.297 88.9277 656.644 88.2475 657.016 87.5149 656.91 86.9736 656.45 86.739 656.011 86.5149 655.589 86.7207 654.854 87.414 653.847 88.3785 652.809 88.8123 651.785 88.2894 650.58 87.6748 650.171 86.2017 651.019 84.5373 651.425 83.7418 651.892 83.2411 652.293 82.9187L653.399 83.9305C653.119 84.1441 652.664 84.5452 652.311 85.2358 651.959 85.9265 652.103 86.4219 652.469 86.608 652.919 86.8373 653.32 86.5411 654.13 85.8059 655.226 84.7955 656.174 84.5399 657.167 85.0471 658.35 85.6499 658.89 87.0732 657.904 89.0089 657.493 89.8149 656.877 90.5043 656.455 90.79L655.302 89.7926Z"/><path d="M655.341 80.3985 654.134 82.1494 652.897 81.2976 656.348 76.2847 657.586 77.1378 656.361 78.9189 661.643 82.557 660.624 84.0367Z"/><path d="M658.542 73.7461 664.58 78.8678 663.416 80.24 657.379 75.117Z"/><path d="M662.097 72.1499 660.567 73.6269 659.522 72.5443 663.903 68.3204 664.947 69.4029 663.391 70.9035 667.842 75.5206 666.548 76.7683Z"/><path d="M666.768 66.0937 669.413 69.8066C670.203 70.9166 671.026 71.1814 671.773 70.6493 672.539 70.1041 672.578 69.2679 671.767 68.129L669.122 64.4175 670.577 63.3809 673.153 66.998C674.57 68.9875 674.24 70.6506 672.557 71.8497 670.931 73.0083 669.333 72.7907 667.868 70.7344L665.304 67.1369 666.768 66.0937Z"/><path d="M674.738 62.8147 672.843 63.778 672.161 62.4373 677.586 59.6799 678.267 61.0206 676.341 61.9995 679.246 67.7175 677.643 68.5314Z"/><path d="M687.06 60.4452C687.885 62.9078 686.893 64.9011 684.698 65.6364 682.47 66.3821 680.604 65.137 679.887 62.9982 679.132 60.748 680.005 58.5842 682.222 57.8424 684.528 57.0692 686.365 58.3745 687.06 60.4452ZM681.669 62.3639C682.161 63.8343 683.2 64.639 684.335 64.2576 685.483 63.8736 685.774 62.5618 685.285 61.1031 684.833 59.7546 683.799 58.8123 682.63 59.2041 681.482 59.5894 681.179 60.9052 681.669 62.3639Z"/><path d="M691.713 57.2383 689.605 57.5135 689.409 56.0221 695.445 55.2357 695.639 56.7258 693.496 57.0063 694.325 63.3665 692.543 63.5997Z"/><path d="M701.83 59.6995 698.918 59.7467 698.948 61.6273 702.202 61.5736 702.225 63.0414 697.175 63.1253 697.045 55.2069 701.932 55.127 701.955 56.5961 698.866 56.6459 698.893 58.2907 701.806 58.2422Z"/><path d="M708.98 63.7111C708.633 63.8291 707.875 63.9038 706.921 63.774 704.208 63.4045 703.042 61.5264 703.346 59.2919 703.71 56.6144 705.822 55.3838 708.196 55.7075 709.116 55.8334 709.79 56.1138 710.081 56.3196L709.529 57.6786C709.188 57.4794 708.708 57.271 708.078 57.1859 706.67 56.9945 705.46 57.6944 705.223 59.44 705.008 61.0127 705.805 62.1293 707.388 62.3442 707.924 62.4163 708.533 62.3809 708.901 62.2892L708.98 63.7111Z"/><path d="M709.814 64.103 712.09 56.5201 714.093 57.1203 714.834 60.3731C715.044 61.3076 715.211 62.3875 715.292 63.3442L715.326 63.3547C715.513 62.3193 715.787 61.2853 716.128 60.1477L716.794 57.9316 718.369 58.4047 716.093 65.9889 714.292 65.4476 713.55 62.0362C713.343 61.09 713.141 59.9629 713.038 58.963L713 58.9643C712.744 59.9787 712.445 61.0546 712.074 62.2931L711.389 64.5761 709.814 64.103Z"/><path d="M725.527 66.0479C724.369 68.3715 722.257 69.0766 720.187 68.0439 718.085 66.9941 717.646 64.7937 718.653 62.7754 719.714 60.6523 721.86 59.7414 723.953 60.786 726.129 61.8711 726.504 64.0925 725.527 66.0479ZM720.361 63.5879C719.669 64.9758 719.833 66.2785 720.905 66.8132 721.987 67.3532 723.122 66.6324 723.809 65.2563 724.445 63.9837 724.379 62.5867 723.276 62.0362 722.193 61.4963 721.049 62.2105 720.361 63.5879Z"/><path d="M728.979 63.74 730.451 64.7727 726.767 70.0241 729.346 71.8327 728.483 73.0633 724.433 70.2233Z"/><path d="M736.839 75.2271C735.069 77.1274 732.844 77.206 731.151 75.6268 729.433 74.0253 729.637 71.7908 731.174 70.1408 732.792 68.4043 735.11 68.1408 736.82 69.7345 738.6 71.3923 738.329 73.6295 736.839 75.2271ZM732.582 71.4041C731.524 72.5391 731.313 73.8339 732.189 74.6517 733.075 75.4761 734.366 75.1065 735.415 73.9807 736.384 72.9414 736.719 71.5824 735.816 70.7423 734.932 69.9167 733.63 70.2784 732.582 71.4041ZM739.474 69.8157 737.442 69.8944 736.392 68.918 738.099 68.534 739.474 69.8157Z"/><path d="M738.93 83.8899C738.445 83.5662 737.605 82.8925 736.971 82.0603 736.094 80.9123 735.75 79.8599 735.868 78.8534 735.967 77.8613 736.546 76.9164 737.478 76.2205 739.576 74.6334 741.933 75.2415 743.509 77.3056 744.129 78.1168 744.448 78.8639 744.534 79.2859L743.166 79.8573C743.052 79.3973 742.846 78.8757 742.318 78.1837 741.413 76.9989 740.056 76.6162 738.693 77.6568 737.396 78.6476 737.25 80.0447 738.141 81.2124 738.39 81.5387 738.628 81.772 738.769 81.8401L740.086 80.8349 739.344 79.8638 740.455 79.0159 742.245 81.3592 738.93 83.8899Z"/><path d="M746.905 82.671 740.095 86.7115 739.178 85.165 745.988 81.1246Z"/><path d="M743.424 93.0507C743.137 92.82 742.669 92.2198 742.27 91.3443 741.131 88.8543 742.094 86.8648 744.146 85.9265 746.604 84.8033 748.771 85.9304 749.767 88.1099 750.154 88.9539 750.276 89.6734 750.258 90.0298L748.813 90.2893C748.802 89.8949 748.719 89.3772 748.456 88.8005 747.864 87.507 746.626 86.8596 745.023 87.5922 743.58 88.2514 743.063 89.5213 743.727 90.9748 743.952 91.4662 744.309 91.9616 744.583 92.2237L743.424 93.0507Z"/><path d="M749.294 99.5052C746.798 100.214 744.853 99.1291 744.221 96.9024 743.58 94.643 744.912 92.8358 747.082 92.2211 749.365 91.5737 751.486 92.5474 752.122 94.7964 752.787 97.1357 751.396 98.9102 749.294 99.5052ZM747.633 94.031C746.141 94.4543 745.288 95.453 745.616 96.6062 745.946 97.77 747.242 98.1213 748.722 97.7019 750.09 97.3153 751.079 96.3258 750.742 95.1384 750.412 93.9746 749.112 93.6103 747.633 94.031Z"/><path d="M648.216 122.686C648.118 123.059 648.06 123.613 648.177 124.146 648.304 124.72 648.608 124.971 648.968 124.891 649.313 124.816 649.452 124.511 649.543 123.794 649.66 122.806 650.036 122.095 650.84 121.918 651.782 121.71 652.677 122.339 652.964 123.642 653.1 124.264 653.072 124.752 652.995 125.112L651.926 125.056C651.984 124.811 652.053 124.384 651.934 123.842 651.815 123.301 651.511 123.094 651.225 123.157 650.871 123.234 650.785 123.58 650.672 124.352 650.525 125.407 650.119 125.977 649.34 126.15 648.414 126.353 647.47 125.813 647.136 124.297 646.997 123.667 647.025 123.008 647.128 122.659L648.216 122.686Z"/><path d="M653.788 127.158 650.686 128.149C649.76 128.445 649.401 128.947 649.599 129.571 649.803 130.21 650.363 130.419 651.314 130.115L654.416 129.125 654.804 130.34 651.782 131.305C650.119 131.835 649.06 131.25 648.61 129.842 648.177 128.483 648.673 127.444 650.393 126.895L653.398 125.935 653.788 127.158Z"/><path d="M655.068 131.225C655.282 131.562 655.543 132.054 655.843 132.774 656.149 133.501 656.226 134.078 656.094 134.543 655.969 134.986 655.63 135.392 655.119 135.606 654.607 135.82 654.103 135.831 653.68 135.645 653.132 135.402 652.712 134.876 652.42 134.18 652.356 134.025 652.305 133.881 652.275 133.767L650.41 134.548 649.92 133.379 655.068 131.225ZM653.189 133.385C653.208 133.496 653.252 133.622 653.323 133.792 653.585 134.42 654.065 134.674 654.6 134.45 655.079 134.25 655.226 133.796 654.98 133.208 654.879 132.968 654.788 132.816 654.729 132.74L653.189 133.385Z"/><path d="M655.634 140.002 654.68 138.154 653.487 138.768 654.552 140.834 653.621 141.315 651.967 138.109 656.991 135.516 658.593 138.618 657.66 139.099 656.649 137.138 655.605 137.675 656.559 139.525Z"/><path d="M658.923 139.361C659.2 139.673 659.569 140.164 659.932 140.739 660.38 141.448 660.588 142.012 660.533 142.523 660.485 142.95 660.249 143.317 659.81 143.595 659.2 143.98 658.508 143.813 658.099 143.494L658.078 143.507C658.154 143.925 657.951 144.312 657.586 144.71 657.142 145.201 656.611 145.743 656.484 145.952L655.786 144.845C655.871 144.682 656.191 144.322 656.69 143.809 657.205 143.304 657.238 142.995 656.968 142.551L656.762 142.224 654.881 143.412 654.204 142.34 658.923 139.361ZM657.542 141.733 657.81 142.157C658.151 142.696 658.623 142.847 659.041 142.582 659.481 142.304 659.513 141.867 659.206 141.366 659.041 141.104 658.926 140.967 658.862 140.898L657.542 141.733Z"/><path d="M662.386 144.384 657.834 147.74 657.073 146.706 661.624 143.35Z"/><path d="M664.251 150.865C662.86 152.092 661.273 151.993 660.179 150.753 659.069 149.495 659.369 147.92 660.577 146.855 661.847 145.733 663.514 145.705 664.619 146.957 665.768 148.259 665.421 149.831 664.251 150.865ZM661.489 147.851C660.658 148.583 660.419 149.49 660.985 150.131 661.557 150.78 662.501 150.607 663.325 149.879 664.085 149.207 664.418 148.265 663.835 147.604 663.264 146.957 662.314 147.123 661.489 147.851Z"/><path d="M666.72 149.47C667.071 149.693 667.564 150.061 668.071 150.512 668.7 151.069 669.055 151.552 669.146 152.059 669.219 152.481 669.096 152.899 668.75 153.289 668.271 153.829 667.56 153.859 667.079 153.668L667.062 153.688C667.252 154.068 667.164 154.495 666.927 154.98 666.635 155.574 666.277 156.243 666.214 156.478L665.235 155.61C665.272 155.43 665.477 154.996 665.813 154.363 666.168 153.735 666.113 153.43 665.73 153.078L665.441 152.823 663.966 154.486 663.019 153.646 666.72 149.47ZM666.054 152.131 666.43 152.465C666.907 152.888 667.401 152.9 667.73 152.529 668.075 152.14 667.983 151.713 667.549 151.316 667.317 151.11 667.168 151.012 667.089 150.963L666.054 152.131Z"/><path d="M671.565 153.542C672.004 153.727 672.545 154.017 673.093 154.36 674.003 154.929 674.491 155.462 674.735 156.099 675.001 156.782 674.946 157.567 674.415 158.415 673.841 159.332 673.111 159.756 672.404 159.858 671.637 159.961 670.743 159.68 669.805 159.093 669.243 158.741 668.866 158.456 668.619 158.251L671.565 153.542ZM670.204 158.135C670.284 158.214 670.434 158.308 670.569 158.393 671.545 159.014 672.524 158.874 673.241 157.73 673.871 156.737 673.617 155.846 672.685 155.263 672.444 155.111 672.274 155.035 672.168 154.998L670.204 158.135Z"/><path d="M678.049 160.745 676.165 159.861 675.595 161.075 677.7 162.064 677.254 163.012 673.987 161.48 676.389 156.36 679.549 157.842 679.104 158.792 677.106 157.855 676.607 158.918 678.491 159.802Z"/><path d="M685.368 163.396C685.528 162.735 685.725 161.936 685.95 161.145L685.925 161.138C685.56 161.784 685.115 162.496 684.726 163.077L683.465 165.014 682.504 164.744 682.516 162.471C682.517 161.783 682.55 160.955 682.621 160.208L682.605 160.203C682.365 160.929 682.106 161.763 681.874 162.431L681.195 164.471 680.056 164.15 681.935 158.803 683.575 159.266 683.597 161.233C683.589 161.91 683.568 162.636 683.509 163.309L683.534 163.315C683.865 162.729 684.252 162.062 684.601 161.507L685.691 159.861 687.299 160.313 686.066 165.842 684.862 165.502 685.368 163.396Z"/><path d="M688.963 164.835 688.345 166.21 687.035 166.01 689.598 160.681 691.256 160.934 692.135 166.789 690.775 166.582 690.563 165.08 688.963 164.835ZM690.525 164.107 690.358 162.868C690.31 162.521 690.273 162.091 690.242 161.746L690.225 161.744C690.091 162.064 689.944 162.474 689.803 162.783L689.29 163.918 690.525 164.107Z"/><path d="M693.552 161.301C693.966 161.26 694.581 161.247 695.26 161.289 696.096 161.341 696.675 161.503 697.058 161.846 697.376 162.134 697.536 162.539 697.503 163.06 697.459 163.779 696.918 164.242 696.421 164.389L696.42 164.413C696.804 164.596 696.998 164.986 697.108 165.516 697.244 166.162 697.375 166.91 697.471 167.134L696.164 167.054C696.082 166.889 695.975 166.42 695.851 165.715 695.745 165.002 695.513 164.795 694.994 164.754L694.608 164.731 694.472 166.949 693.207 166.871 693.552 161.301ZM694.666 163.809 695.168 163.839C695.805 163.879 696.201 163.584 696.232 163.09 696.264 162.571 695.928 162.289 695.342 162.244 695.033 162.226 694.856 162.241 694.762 162.251L694.666 163.809Z"/><path d="M699.456 162.546 697.939 162.575 697.918 161.501 702.263 161.417 702.284 162.492 700.741 162.521 700.827 167.103 699.544 167.126Z"/><path d="M704.823 159.914 703.858 161.009 702.837 161.074 703.484 159.999 704.823 159.914ZM704.121 161.296 704.48 166.939 703.199 167.02 702.84 161.377 704.121 161.296Z"/><path d="M705.82 166.868 705.081 161.262 706.562 161.066 707.997 162.968C708.409 163.514 708.833 164.17 709.166 164.769L709.191 164.765C709.01 164.036 708.886 163.282 708.774 162.441L708.559 160.803 709.723 160.649 710.462 166.256 709.131 166.432 707.649 164.427C707.236 163.871 706.776 163.196 706.414 162.575L706.39 162.586C706.52 163.322 706.642 164.111 706.763 165.025L706.984 166.715 705.82 166.868Z"/><path d="M714.621 162.893 712.592 163.358 712.892 164.666 715.158 164.147 715.391 165.171 711.875 165.976 710.612 160.462 714.014 159.682 714.249 160.706 712.098 161.199 712.36 162.344 714.389 161.879Z"/><path d="M715.994 164.306 717.334 159.779 717.323 159.748 715.005 160.514 714.672 159.511 718.567 158.221 718.799 158.922 717.5 163.382 717.512 163.415 720.053 162.573 720.385 163.577 716.21 164.959Z"/><path d="M720.653 157.456C721.037 157.174 721.563 156.857 722.137 156.561 723.092 156.07 723.8 155.924 724.474 156.039 725.196 156.158 725.842 156.609 726.299 157.498 726.795 158.46 726.784 159.305 726.51 159.964 726.207 160.677 725.509 161.301 724.523 161.807 723.934 162.111 723.496 162.288 723.194 162.396L720.653 157.456ZM723.906 160.973C724.015 160.946 724.171 160.864 724.314 160.792 725.348 160.269 725.726 159.357 725.109 158.155 724.58 157.107 723.683 156.87 722.706 157.373 722.453 157.503 722.299 157.609 722.214 157.682L723.906 160.973Z"/><path d="M730.161 155.575 728.437 156.74 729.189 157.853 731.114 156.551 731.703 157.42 728.712 159.44 725.546 154.755 728.438 152.801 729.025 153.668 727.197 154.904 727.855 155.878 729.578 154.713Z"/><path d="M730.304 151.317 731.257 150.457 734.328 153.858 735.996 152.351 736.716 153.149 734.093 155.516Z"/><path d="M737.355 150.362 738.172 151.628 737.291 152.618 734.215 147.567 735.33 146.313 740.721 148.763 739.806 149.791 738.432 149.152 737.355 150.362ZM737.594 148.654 736.464 148.119C736.145 147.972 735.765 147.768 735.459 147.607L735.448 147.62C735.642 147.906 735.907 148.253 736.09 148.54L736.763 149.588 737.594 148.654Z"/><path d="M739.077 143.214 738.227 144.472 737.337 143.87 739.773 140.272 740.662 140.873 739.797 142.151 743.591 144.718 742.871 145.782Z"/><path d="M744.812 136.856C746.44 137.743 746.889 139.269 746.098 140.72 745.294 142.193 743.713 142.448 742.299 141.678 740.81 140.867 740.216 139.31 741.016 137.843 741.846 136.319 743.443 136.109 744.812 136.856ZM742.922 140.48C743.895 141.009 744.829 140.927 745.239 140.176 745.652 139.416 745.167 138.589 744.203 138.062 743.312 137.577 742.312 137.586 741.891 138.359 741.477 139.118 741.958 139.953 742.922 140.48Z"/><path d="M742.689 134.973C742.787 134.568 742.981 133.985 743.247 133.36 743.575 132.586 743.921 132.095 744.372 131.85 744.751 131.645 745.186 131.631 745.664 131.834 746.328 132.116 746.584 132.782 746.555 133.298L746.579 133.307C746.88 133.007 747.313 132.955 747.847 133.027 748.503 133.115 749.252 133.24 749.495 133.226L748.984 134.432C748.8 134.454 748.323 134.396 747.617 134.278 746.908 134.141 746.635 134.29 746.424 134.766L746.273 135.121 748.321 135.991 747.824 137.156 742.689 134.973ZM745.424 134.759 745.621 134.295C745.871 133.708 745.724 133.236 745.27 133.042 744.79 132.839 744.412 133.062 744.175 133.599 744.055 133.885 744.009 134.057 743.988 134.149L745.424 134.759Z"/><path d="M744.53 130.542C744.595 130.129 744.737 129.533 744.948 128.885 745.211 128.089 745.513 127.57 745.942 127.287 746.301 127.051 746.733 126.998 747.228 127.161 747.913 127.386 748.225 128.027 748.241 128.543L748.264 128.551C748.538 128.226 748.965 128.136 749.504 128.163 750.164 128.195 750.922 128.256 751.163 128.221L750.756 129.466C750.575 129.503 750.094 129.487 749.381 129.429 748.664 129.353 748.404 129.525 748.234 130.016L748.113 130.383 750.227 131.077 749.832 132.28 744.53 130.542ZM747.237 130.095 747.394 129.618C747.592 129.011 747.407 128.553 746.937 128.399 746.443 128.237 746.085 128.491 745.893 129.047 745.798 129.341 745.766 129.516 745.753 129.61L747.237 130.095Z"/><path d="M749.846 123.414 749.377 125.441 750.685 125.744 751.209 123.479 752.231 123.717 751.417 127.231 745.908 125.958 746.694 122.555 747.715 122.793 747.218 124.942 748.362 125.208 748.832 123.179Z"/><path d="M686.073 123.972C685.927 124.094 685.846 124.174 685.753 124.239 682.867 126.268 679.981 128.294 677.097 130.326 676.794 130.538 676.497 130.761 676.219 131.003 675.816 131.354 675.508 131.782 675.335 132.292 675.082 133.033 675.183 133.753 675.511 134.449 675.857 135.183 676.352 135.809 676.975 136.324 677.664 136.896 678.376 137.442 679.09 137.983 679.679 138.43 680.28 138.863 680.886 139.289 681.348 139.614 681.827 139.912 682.401 140.017 683.154 140.156 683.83 140.007 684.429 139.521 684.829 139.196 685.13 138.792 685.365 138.336 686.336 136.449 687.309 134.56 688.284 132.673 689.294 130.718 690.306 128.764 691.32 126.809 691.428 126.602 691.544 126.399 691.668 126.201 691.759 126.056 691.903 125.993 692.073 126.036 692.543 126.157 693.015 126.276 693.48 126.415 693.706 126.482 693.764 126.654 693.653 126.88 693.437 127.317 693.211 127.748 692.985 128.179 691.25 131.471 689.513 134.763 687.779 138.055 687.571 138.451 687.362 138.85 687.174 139.255 686.614 140.463 686.733 141.603 687.55 142.658 687.901 143.113 688.322 143.456 688.892 143.638 691.084 144.338 693.297 144.942 695.583 145.254 697.036 145.452 697.839 144.654 698.218 143.705 698.488 143.03 698.602 142.316 698.603 141.589 698.603 140.907 698.59 140.224 698.578 139.543 698.535 137.01 698.486 134.476 698.446 131.942 698.424 130.52 698.413 129.096 698.397 127.673 698.392 127.065 698.489 126.965 699.106 126.954 699.438 126.947 699.768 126.947 700.1 126.956 700.231 126.959 700.362 126.994 700.52 127.02 700.536 127.192 700.562 127.343 700.561 127.494 700.556 128.467 700.547 129.442 700.539 130.417 700.509 133.983 700.478 137.551 700.447 141.118 700.442 141.645 700.475 142.171 700.578 142.688 700.689 143.25 700.915 143.763 701.282 144.21 701.722 144.743 702.288 145.066 702.966 145.184 703.253 145.233 703.548 145.269 703.837 145.257 704.87 145.218 705.9 145.16 706.89 144.811 707.161 144.716 707.466 144.716 707.74 144.625 708.608 144.337 709.472 144.034 710.33 143.718 710.601 143.617 710.862 143.475 711.106 143.317 712.004 142.734 712.405 141.901 712.333 140.832 712.289 140.199 712.11 139.608 711.816 139.05 711.526 138.497 711.228 137.949 710.938 137.399 710.456 136.485 709.977 135.571 709.496 134.657 708.401 132.571 707.304 130.484 706.207 128.398 705.98 127.967 705.751 127.538 705.523 127.107 705.497 127.056 705.47 127.003 705.448 126.95 705.334 126.686 705.38 126.368 705.79 126.306 706.117 126.256 706.436 126.169 706.757 126.086 707.27 125.956 707.465 126.028 707.706 126.499 708.276 127.606 708.841 128.718 709.401 129.83 710.048 131.119 710.667 132.421 711.339 133.695 711.993 134.936 712.557 136.221 713.203 137.464 713.427 137.896 713.659 138.325 713.908 138.743 714.038 138.958 714.203 139.155 714.367 139.346 715.209 140.338 716.552 140.391 717.505 139.861 719.102 138.974 720.526 137.864 721.79 136.548 722.221 136.099 722.628 135.626 723.038 135.156 723.336 134.817 723.585 134.441 723.729 134.011 724 133.197 723.864 132.433 723.401 131.723 723.011 131.126 722.489 130.66 721.913 130.251 720.674 129.372 719.428 128.501 718.188 127.621 716.6 126.494 715.013 125.361 713.428 124.229 713.323 124.153 713.234 124.055 713.119 123.949 713.204 123.876 713.254 123.814 713.319 123.781 713.838 123.513 714.363 123.255 714.883 122.988 715.116 122.869 715.307 122.89 715.526 123.055 716.13 123.513 716.757 123.943 717.37 124.39 718.737 125.39 720.104 126.394 721.468 127.398 722.112 127.871 722.754 128.345 723.394 128.825 723.771 129.108 724.179 129.332 724.622 129.493 725.582 129.843 726.463 129.666 727.268 129.065 727.728 128.722 728.079 128.275 728.325 127.758 728.568 127.25 728.804 126.733 728.991 126.201 729.42 124.99 729.839 123.776 730.218 122.548 730.48 121.692 730.67 120.814 730.891 119.946 730.911 119.87 730.923 119.793 730.941 119.717 731.017 119.398 731.228 119.217 731.54 119.149 731.693 119.116 731.849 119.101 732.001 119.068 732.247 119.014 732.49 118.942 732.738 118.896 733.178 118.816 733.619 118.736 734.062 118.683 734.307 118.654 734.465 118.833 734.436 119.089 734.41 119.321 734.354 119.549 734.305 119.778 734.107 120.692 733.925 121.61 733.703 122.517 733.583 123.009 733.397 123.483 733.235 123.963 733.092 124.386 732.928 124.802 732.8 125.23 732.738 125.432 732.724 125.651 732.709 125.865 732.687 126.195 732.796 126.446 733.079 126.667 733.616 127.085 734.111 127.555 734.628 127.999 735.692 128.913 736.737 129.851 737.833 130.721 738.329 131.113 738.339 131.894 738.064 132.36 737.43 133.43 736.816 134.516 736.195 135.594 735.904 136.099 735.613 136.605 735.321 137.109 735.311 137.126 735.299 137.141 735.288 137.158 734.873 137.751 734.586 137.86 733.893 137.635 733.263 137.43 732.642 137.2 732.018 136.978 730.716 136.515 729.414 136.049 728.11 135.589 727.983 135.544 727.847 135.517 727.712 135.498 727.405 135.455 727.129 135.526 726.91 135.754 726.627 136.049 726.337 136.34 726.076 136.653 725.04 137.901 723.871 139.013 722.653 140.079 722.463 140.245 722.29 140.434 722.091 140.59 721.867 140.764 721.78 140.991 721.8 141.256 721.817 141.486 721.845 141.724 721.915 141.943 722.07 142.425 722.255 142.895 722.426 143.372 722.571 143.773 722.715 144.177 722.858 144.579 723.113 145.294 723.373 146.007 723.623 146.722 723.751 147.09 723.851 147.468 723.983 147.833 724.125 148.221 723.97 148.7 723.547 148.989 722.901 149.43 722.187 149.74 721.527 150.151 720.669 150.687 719.796 151.198 718.926 151.713 718.777 151.802 718.6 151.848 718.454 151.942 718.065 152.19 717.711 152.11 717.372 151.852 717.233 151.747 717.092 151.635 716.982 151.502 716.284 150.664 715.601 149.815 714.899 148.98 714.284 148.25 713.652 147.535 713.026 146.815 712.66 146.397 712.243 146.299 711.713 146.497 711.423 146.605 711.131 146.714 710.842 146.83 710.08 147.132 709.291 147.347 708.495 147.539 707.759 147.717 707.022 147.898 706.284 148.072 706.114 148.111 705.936 148.121 705.767 148.164 705.581 148.212 705.397 148.278 705.217 148.347 704.896 148.47 704.74 148.718 704.676 149.052 704.47 150.123 704.241 151.189 704.043 152.261 703.898 153.046 703.792 153.838 703.659 154.626 703.611 154.913 703.535 155.196 703.469 155.482 703.367 155.938 703.06 156.174 702.617 156.25 702.465 156.276 702.307 156.276 702.151 156.276 700.378 156.276 698.603 156.275 696.83 156.274 696.713 156.272 696.594 156.277 696.48 156.258 696.106 156.194 695.819 156.006 695.716 155.626 695.631 155.306 695.573 154.98 695.51 154.655 695.441 154.292 695.382 153.928 695.314 153.565 695.148 152.687 694.979 151.81 694.814 150.933 694.764 150.664 694.717 150.396 694.671 150.127 694.606 149.743 694.539 149.359 694.48 148.975 694.441 148.726 694.336 148.535 694.084 148.444 693.847 148.359 693.618 148.242 693.374 148.182 692.523 147.974 691.666 147.789 690.814 147.584 690.227 147.443 689.638 147.308 689.062 147.128 688.563 146.972 688.084 146.748 687.592 146.57 687.394 146.498 687.183 146.444 686.974 146.418 686.67 146.38 686.412 146.463 686.204 146.723 685.913 147.088 685.579 147.417 685.277 147.771 684.861 148.261 684.487 148.79 684.04 149.25 683.431 149.878 682.961 150.625 682.318 151.223 682.207 151.326 682.144 151.483 682.035 151.592 681.884 151.74 681.724 151.886 681.547 152.001 681.339 152.136 681.102 152.136 680.876 152.023 680.563 151.865 680.247 151.711 679.943 151.537 679.165 151.094 678.393 150.641 677.618 150.191 676.963 149.81 676.306 149.431 675.655 149.042 675.524 148.963 675.401 148.86 675.296 148.748 675.05 148.484 674.979 148.161 675.097 147.824 675.236 147.422 675.41 147.033 675.565 146.636 675.62 146.491 675.663 146.341 675.711 146.194 675.93 145.527 676.103 144.841 676.381 144.201 676.693 143.484 676.909 142.738 677.175 142.007 677.208 141.915 677.227 141.818 677.262 141.729 677.468 141.219 677.287 140.814 676.917 140.469 676.519 140.096 676.124 139.717 675.704 139.371 674.979 138.775 674.333 138.101 673.716 137.397 673.318 136.944 672.934 136.479 672.531 136.031 672.389 135.873 672.221 135.73 672.041 135.618 671.916 135.54 671.75 135.495 671.603 135.495 671.391 135.496 671.169 135.522 670.971 135.592 669.979 135.941 668.995 136.312 668.007 136.67 667.714 136.778 667.416 136.867 667.123 136.97 666.462 137.202 665.804 137.446 665.139 137.667 664.58 137.855 664.321 137.771 663.981 137.301 663.775 137.017 663.584 136.72 663.409 136.416 662.916 135.554 662.426 134.69 661.953 133.816 661.704 133.356 661.405 132.927 661.152 132.47 661.087 132.351 661.017 132.233 660.961 132.109 660.749 131.653 660.787 131.237 661.18 130.891 661.75 130.389 662.324 129.892 662.897 129.394 663.455 128.909 664.012 128.423 664.57 127.938 665.026 127.542 665.468 127.129 665.943 126.76 666.447 126.368 666.565 125.93 666.337 125.326 666.046 124.563 665.813 123.776 665.581 122.992 665.425 122.47 665.313 121.937 665.182 121.409 665.108 121.106 665.024 120.806 664.958 120.5 664.861 120.044 664.768 119.586 664.687 119.126 664.652 118.92 664.767 118.785 664.978 118.776 665.151 118.767 665.336 118.759 665.5 118.806 666.102 118.975 666.724 119.034 667.341 119.113 667.399 119.119 667.456 119.131 667.514 119.136 667.877 119.168 668.06 119.375 668.14 119.722 668.29 120.367 668.437 121.014 668.628 121.647 668.936 122.672 669.254 123.697 669.615 124.705 669.923 125.566 670.291 126.404 670.641 127.25 670.752 127.52 670.866 127.794 671.02 128.04 671.224 128.37 671.436 128.705 671.701 128.984 672.434 129.75 673.325 129.963 674.32 129.588 674.697 129.445 675.067 129.244 675.397 129.011 676.891 127.952 678.369 126.874 679.853 125.8 681.068 124.921 682.281 124.04 683.496 123.162 683.605 123.084 683.716 123 683.838 122.943 684.078 122.833 684.342 122.791 684.571 122.933 685.068 123.239 685.568 123.54 686.073 123.972Z" fill="#013F1F" fill-rule="evenodd"/><path d="M701.616 127.688 701.843 140.682C701.843 140.682 701.388 143.726 703.797 143.317 706.204 142.908 709.976 141.818 709.976 141.818 709.976 141.818 711.43 141.319 710.43 139.455 709.43 137.593 704.342 127.369 704.342 127.369L701.616 127.688Z" fill="#829B19" fill-rule="evenodd"/><path d="M697.118 127.914 697.118 141.409C697.118 141.409 697.435 143.574 695.437 143.355 693.437 143.135 689.212 142.045 689.212 142.045 689.212 142.045 687.486 141.454 688.712 139.228 689.939 137.002 694.573 127.551 694.573 127.551L697.118 127.914Z" fill="#829B19" fill-rule="evenodd"/><path d="M689.666 126.779 684.533 137.183C684.533 137.183 683.76 139.091 682.17 138 680.58 136.911 677.035 133.594 677.035 133.594 677.035 133.594 676.036 132.276 677.853 131.231 679.671 130.187 686.531 125.188 686.531 125.188L689.666 126.779Z" fill="#829B19" fill-rule="evenodd"/><path d="M708.976 126.505 714.61 137.729C714.61 137.729 715.382 139.674 717.018 138.337 718.653 137.002 721.97 133.685 721.97 133.685 721.97 133.685 723.243 132.639 721.425 131.458 719.607 130.277 712.384 124.871 712.384 124.871L708.976 126.505Z" fill="#829B19" fill-rule="evenodd"/><path d="M728.831 120.781C728.831 120.781 726.695 126.779 726.468 127.369 726.242 127.96 725.059 128.459 724.015 127.778 722.97 127.096 716.655 122.28 716.655 122.28L718.563 121.554 728.831 120.781Z" fill="#829B19" fill-rule="evenodd"/><path d="M682.158 122.747 675.071 127.551C675.071 127.551 673.333 128.88 672.379 126.802 671.425 124.723 670.13 120.668 670.13 120.668L681.136 121.724 682.158 122.747Z" fill="#829B19" fill-rule="evenodd"/><path d="M726.778 97.3795C726.778 112.409 714.594 124.592 699.565 124.592 684.536 124.592 672.352 112.409 672.352 97.3795 672.352 82.3504 684.536 70.167 699.565 70.167 714.594 70.167 726.778 82.3504 726.778 97.3795Z" fill="#FFFFFF"/><path d="M699.54 70.167C699.271 70.167 699.003 70.1722 698.737 70.1801 698.157 71.4697 697.831 72.8982 697.831 74.404 697.831 80.0997 702.45 84.7181 708.145 84.7181 712.799 84.7181 716.731 81.6357 718.015 77.4026 713.163 72.9126 706.672 70.167 699.54 70.167Z" fill="#FF7800"/><path d="M676.351 111.583C681.136 119.386 689.742 124.591 699.565 124.591 709.388 124.591 717.994 119.386 722.778 111.583L676.351 111.583Z" fill="#0071B3"/><path d="M726.778 97.3795C726.778 96.6338 726.745 95.8972 726.687 95.1673L725.766 95.2406 723.263 92.7139 723.198 90.6445 726.546 93.8266C726.5 93.4727 726.446 93.1228 726.387 92.7742L723.829 90.3876 723.712 89.8267 725.643 89.5869C725.605 89.4571 725.565 89.3274 725.525 89.199L723.991 89.4296 725.272 88.4624 725.281 88.4624C725.226 88.3065 725.172 88.1505 725.114 87.9959L725.029 88.0601 719.117 88.0417 719.117 88.0417 724.804 87.1925C724.742 87.0391 724.681 86.8871 724.616 86.7364L717.815 87.7482 711.16 95.875 707.131 91.5318 706.886 91.3221 701.561 90.2356 701.176 89.8857 687.199 90.6904 675.464 92.7231 675.009 92.8803 672.359 96.8343C672.355 97.0151 672.352 97.196 672.352 97.3795 672.352 97.7648 672.363 98.1475 672.379 98.5275L674.869 94.474 674.974 94.4045 674.974 99.2575 672.431 99.458C672.802 104.357 674.469 108.893 677.09 112.725L677.59 112.725 677.285 103.126 677.59 103.126 677.59 102.146 677.59 101.436 707.645 99.6087 707.645 100.113 707.856 100.242 707.388 111.102 705.94 111.102 705.94 113.203 710.984 113.203 718.528 112.877 718.528 111.102 716.823 110.962 715.749 101.2 716.016 101.019 715.917 99.1055 726.754 98.4463C726.767 98.0924 726.778 97.7373 726.778 97.3795ZM686.358 91.1818 686.487 91.5173 686.15 91.9944 683.155 91.7755 686.358 91.1818ZM682.475 91.9013 685.942 92.2906 685.614 92.7558 682.069 91.9773 682.475 91.9013ZM685.491 92.9301 685.473 92.9563 681.783 92.9354 682.328 92.2381 685.491 92.9301ZM681.245 92.1307 681.625 92.0599 682.011 92.1805 681.475 92.9249 681.245 92.9314 681.245 92.1307ZM681.245 93.2394 681.277 93.2394 681.245 93.2905 681.245 93.2394ZM681.245 93.7335 681.572 93.2368 685.288 93.2184 685.245 93.28 682.301 93.7925 681.245 93.8645 681.245 93.7335 681.245 93.7335ZM684.84 93.8528 683.444 95.8304 682.209 94.3599 682.224 94.2695 684.84 93.8528ZM677.765 99.0373 675.746 99.1959 675.52 93.782 675.646 93.6247 678.715 97.7975 677.765 99.0373ZM678.748 98.9587 679.144 98.3794 679.525 98.8971 678.748 98.9587ZM680.812 98.7936 680.318 98.8342 679.53 97.8107 680.812 95.9313 680.812 98.7936ZM680.812 95.0663 679.118 97.2746 676.669 94.0913 680.811 94.6378 680.812 95.0663ZM680.812 93.8514 676.19 93.2643 680.812 93.2407 680.812 93.8514ZM680.812 92.9288 677.057 92.9078 680.812 92.2106 680.812 92.9288ZM681.555 98.7307 681.245 98.7569 681.245 95.297 681.353 95.1371 681.559 95.0899 681.555 98.7307ZM681.955 94.9995 682.017 94.8606 683.119 96.293 681.858 98.0806 681.955 94.9995ZM682.572 98.656 683.648 96.985 684.798 98.4803 682.572 98.656ZM686.849 98.3178 685.614 98.4161 683.981 96.4699 685.761 93.706 686.849 93.5317 686.849 98.3178 686.849 98.3178ZM686.849 93.0009 686.136 93.1241 686.849 92.018 686.849 93.0009ZM700.055 90.3064 700.184 90.7559 695.877 90.6497 695.641 90.5842 695.641 90.5842 700.055 90.3064ZM694.906 90.7205 694.918 90.7231 694.847 90.8581 695.421 90.8725 698.049 91.6523 694.438 91.3719 694.906 90.7205ZM697.211 91.8555 693.964 92.0337 694.227 91.668 697.211 91.8555ZM687.474 91.6523 687.512 91.5409 688.383 92.7335 687.475 92.8908 687.475 91.6523 687.474 91.6523ZM687.474 98.2693 687.474 93.4321 688.745 93.2289 690.506 95.6404 688.662 98.175 687.474 98.2693ZM689.305 93.1398 692.723 92.5933 690.845 95.1751 689.305 93.1398ZM689.617 98.099 690.947 96.2432 692.155 97.8985 689.617 98.099ZM693.329 97.8054 692.864 97.8421 691.29 95.7635 693.329 92.9196 693.329 97.8054 693.329 97.8054ZM693.329 91.7585 693.236 91.8882 688.925 92.6392 687.889 91.271 693.329 91.6117 693.329 91.7585ZM693.329 91.2867 688.942 90.9446 693.329 90.7297 693.329 91.2867ZM693.892 90.6956 694.113 90.6812 693.897 90.98 693.892 90.6956ZM693.922 92.2945 699.26 92.0442 696.393 95.5866 693.93 92.7689 693.922 92.2945ZM694.024 97.7517 693.945 93.5828 695.996 96.0781 694.683 97.6992 694.024 97.7517ZM695.497 97.635 696.361 96.5211 697.167 97.5027 695.497 97.635ZM699.372 97.3284 698.015 97.4358 696.759 96.006 699.372 92.6326 699.372 97.3284ZM696.818 90.9092 700.109 90.997 699.564 91.668 696.818 90.9092ZM700.755 97.2183 699.891 97.2864 699.891 92.0154 700.755 91.9747 700.755 97.2183ZM700.755 91.6602 700.1 91.6956 700.594 91.0573 700.721 91.1412 700.755 91.1294 700.755 91.6602ZM706.233 92.2381 706.343 95.0965 705.004 93.7754 706.186 92.2355 706.233 92.2381ZM704.608 93.3849 703.069 91.8659 705.883 91.7349 704.608 93.3849ZM704.87 91.4322 702.748 91.5501 702.245 91.0534 703.57 91.0888 703.57 91.0888 704.87 91.4322ZM702.537 90.8149 701.988 90.8018 701.806 90.6209 702.537 90.8149ZM701.316 91.0285 701.543 91.035 702.045 91.5881 701.316 91.6287 701.316 91.0285 701.316 91.0285ZM701.316 97.1737 701.316 91.9485 702.328 91.9013 704.178 93.9419 701.737 97.1016 701.809 97.1357 701.316 97.1737ZM702.464 97.0833 704.556 94.3586 706.393 96.3861 706.409 96.7714 702.464 97.0833ZM710.692 96.4333 707.947 96.6495 707.797 96.5289 707.002 95.7465 706.801 92.263 706.886 92.267 707.131 92.1975 710.715 96.4044 710.692 96.4333ZM711.884 96.3389 717.804 88.9172 717.85 95.8671 711.884 96.3389ZM718.364 89.2671 718.621 88.87 721.187 91.3758 718.457 94.4504 718.364 89.2671ZM720.295 89.7166 722.036 90.4204 721.542 90.9761 720.295 89.7166ZM722.59 95.4923 718.482 95.816 721.683 91.8594 722.59 92.7453 722.59 95.4923ZM722.59 92.035 721.994 91.4308 722.474 90.7611 722.314 90.5318 722.59 90.6445 722.59 92.035ZM722.817 89.7376 718.972 88.3445 718.936 88.2593 724.531 88.4388 722.825 89.7337 722.817 89.7376ZM723.348 95.432 723.285 93.4229 725.193 95.2865 723.348 95.432Z" fill="#FF7800"/><path d="M674.805 92.6615 675.422 92.4439 687.116 90.4007 701.232 89.5502 701.78 89.9827 707.085 91.0377 707.365 91.4164 711.08 95.3979 717.567 87.41 724.466 86.4245C723.031 83.1651 720.976 80.24 718.448 77.801 717.022 82.1206 712.955 85.2411 708.157 85.2411 702.17 85.2411 697.319 80.388 697.319 74.404 697.319 72.9139 697.62 71.4946 698.164 70.2024 684.17 70.9048 672.963 82.1796 672.366 96.2026L674.805 92.6615Z" fill="#FF1A22"/><path d="M707.516 100.465 707.322 100.261 707.313 100.003 677.959 101.904 677.972 103.428 677.74 103.449 677.913 110.99 705.777 110.935 707.061 110.904Z" fill="#FF1A22"/><path d="M716.217 99.4816 716.331 101.246 716.119 101.385 717.166 110.607 718.525 110.914 723.134 110.99C725.236 107.357 726.521 103.204 726.741 98.8172L716.217 99.4816Z" fill="#FF1A22"/></g></svg>