<?xml version="1.0" encoding="utf-8"?>
<!-- Generator: Adobe Illustrator 16.0.0, SVG Export Plug-In . SVG Version: 6.00 Build 0)  -->
<!DOCTYPE svg PUBLIC "-//W3C//DTD SVG 1.1//EN" "http://www.w3.org/Graphics/SVG/1.1/DTD/svg11.dtd">
<svg version="1.1" id="Capa_1" xmlns="http://www.w3.org/2000/svg" xmlns:xlink="http://www.w3.org/1999/xlink" x="0px" y="0px"
	 width="254.351px" height="62.992px" viewBox="0 0 254.351 62.992" enable-background="new 0 0 254.351 62.992"
	 xml:space="preserve">
<g>
	<path fill-rule="evenodd" clip-rule="evenodd" fill="#FFFFFF" d="M11.39,7.719c-1.01,0.254-3.615,1.105-4.541,1.555v5.509
		c0,1.571-0.155,1.225,1.49,1.275c8.922,0.296,13.694,1.489,20.392,5.631c-0.134-1.644-0.677-3.267-1.47-4.701
		c-4.47-3.263-8.69-4.893-14.21-5.259c15.642-3.732,29.681,11.254,24.47,26.753c-1.262-0.34-3.84-1.35-6.218,0.655
		c1.155,3.207,0.229,8.239-4.07,7.951c0.156,1.473-0.64,3.485-2.814,5.085c-3.034,1.86-7.716,2.488-10.041,1.087
		c-2.894,0.469-5.007-0.394-7.512-1.611v2.639c1.354,0.903,2.915,1.396,4.525,1.756l1.135,5.118c0.279,0.553,0.769,0.841,1.494,0.85
		h7.723c0.653-0.009,1.102-0.317,1.401-0.85l1.103-5.249c1.028-0.272,2.031-0.608,3.01-1.016l3.982,3.522
		c0.517,0.23,1.053,0.264,1.622-0.182l5.871-4.34c0.469-0.387,0.692-0.877,0.61-1.503l-2.188-4.824
		c0.676-0.822,1.293-1.692,1.837-2.571l5.325,0.498c0.56-0.008,0.943-0.366,1.195-1.089l2.192-6.978
		c0.194-0.63,0.112-1.162-0.363-1.555l-4.634-2.633c0.062-1.05,0.049-2.115-0.025-3.159l4.592-2.721
		c0.508-0.275,0.572-0.848,0.308-1.625l-2.312-6.915c-0.143-0.667-0.547-0.99-1.178-1.045l-5.316,0.602
		c-0.578-0.892-1.207-1.724-1.884-2.539l2.116-4.891c0.151-0.584,0.009-1.079-0.667-1.47l-5.925-4.231
		c-0.567-0.392-1.112-0.503-1.631-0.147l-3.933,3.586c-0.979-0.388-1.986-0.71-3.018-0.96l-1.148-5.205
		c-0.192-0.604-0.66-0.855-1.457-0.825h-7.267c-0.851,0.022-1.249,0.377-1.417,0.829L11.39,7.719z M19.947,30.054h0.669
		c0.065,0,0.124,0.065,0.124,0.129v0.252c0,0.076-0.058,0.12-0.124,0.12h-0.669c-0.057,0-0.116-0.044-0.116-0.12v-0.252
		C19.831,30.119,19.89,30.054,19.947,30.054 M21.683,18.948c1.115,0.293,1.771,1.44,1.471,2.545
		c-0.289,1.111-1.429,1.771-2.544,1.489c-1.106-0.302-1.765-1.445-1.463-2.559C19.438,19.306,20.583,18.651,21.683,18.948
		 M22.144,19.83c0.333,0.07,0.526,0.422,0.433,0.76c-0.084,0.327-0.43,0.517-0.769,0.438c-0.325-0.093-0.525-0.433-0.433-0.768
		C21.467,19.928,21.808,19.73,22.144,19.83 M20.28,28.795c0.827,0,1.521,0.69,1.521,1.506c0,0.835-0.693,1.511-1.521,1.521
		c-0.83-0.01-1.502-0.686-1.502-1.521C18.778,29.485,19.451,28.795,20.28,28.795 M20.28,29.546c0.426,0,0.765,0.341,0.765,0.756
		c0,0.434-0.339,0.778-0.765,0.778c-0.417,0-0.763-0.344-0.763-0.778C19.517,29.887,19.863,29.546,20.28,29.546 M24.264,20.396
		c1.485,0.648,3.045,1.333,4.487,2.095c-0.005,0.34-0.045,0.671-0.066,1.007c-0.113,0.788-0.364,1.6-0.58,2.373
		c-2.212-0.968-6.024-1.102-8.399-0.454c-1.661-0.878-2.588-2.736-2.229-4.633c0.037,0.021,0.366,0.11,0.551,0.168
		c0.058,1.644,1.438,2.962,3.129,2.962c1.729,0,3.122-1.376,3.122-3.078C24.279,20.685,24.272,20.536,24.264,20.396 M22.506,30.247
		c-0.026-1.376-1.072-2.166-2.358-2.4c-1.352-0.262-2.922-0.303-3.923-0.209c2.779-2.264,8.474-2.317,11.542-1.085
		C25.461,26.587,23.261,28.032,22.506,30.247 M6.998,18.13c-0.267-0.018-0.316-1.317,0.052-1.312
		c4.264,0.11,7.88,0.378,12.053,1.678c-0.499,0.445-0.866,1.026-1.016,1.697C14.424,18.942,10.828,18.465,6.998,18.13 M7.031,20.396
		c-0.316-0.046-0.316-1.632-0.016-1.606c3.335,0.438,6.479,0.783,9.73,1.746c-0.145,0.678-0.145,1.344-0.021,1.985
		C13.51,21.581,10.329,20.927,7.031,20.396 M7.031,23.27c-0.266-0.081-0.434-2.056,0.077-1.981c3.318,0.591,6.56,1.103,9.824,2.034
		c0.417,1.152,0.993,1.774,1.612,2.476C16.655,26.471,9.846,24.106,7.031,23.27 M7.108,28.013c-0.259,0.02-0.831-4.002,0.189-3.718
		c3.166,0.881,6.461,1.876,9.635,2.22c-0.587,0.339-1.126,0.715-1.559,1.122c-1.103-0.005-2.206,0-3.287,0.047
		C10.427,27.751,8.764,27.891,7.108,28.013 M7.167,30.814C6.59,30.84,6.615,28.745,7.154,28.69
		c4.159-0.497,7.888-0.545,11.957-0.281c-1.193,0.758-1.402,2.405-0.441,3.44C14.963,30.995,10.97,30.721,7.167,30.814
		 M6.849,34.953l-0.013-2.938c0-0.261,0.155-0.397,0.305-0.43c2.092-0.268,4.634-0.103,6.767,0.111l0.153,0.009
		c-2.154,0.892-5.351,2.789-6.691,3.642c-0.179,0.084-0.339,0.071-0.446-0.015C6.808,35.25,6.849,35.103,6.849,34.953
		 M23.131,35.332c-0.892-0.676-1.731-1.932-2.097-2.927c0.542-0.198,0.991-0.599,1.25-1.117c-0.129,1.193,0.178,2.461,0.859,3.488
		c0.078,0.127,0.157,0.24,0.237,0.346C23.639,35.418,23.454,35.57,23.131,35.332 M13.668,51.606
		c-2.402,0.143-6.593-0.113-7.496-2.85c2.663-5.989,5.954-11.686,10.093-16.759c0.325,0.052,0.637,0.104,0.96,0.158
		C14.539,38.488,13.779,44.763,13.668,51.606 M7.297,43.508c-0.799,0.518-1.759-5.771,0-7.074c1.936-1.358,3.777-2.508,5.871-3.824
		l1.36-0.855c0.294,0.034,0.594,0.068,0.877,0.117c-0.242,0.27-0.76,0.857-0.843,0.947C12.023,35.623,9.102,40.585,7.297,43.508
		 M30.633,26.011c0.603,0.213-0.121,2.208-0.554,2.083c-0.472-0.062-0.916-0.013-1.262,0.289c0.295,0.652,1.045,2.262,1.282,3.313
		c0.091,0.39,0.2,1.346-0.247,1.599c-0.297,0.186-0.831,0.148-1.548,0.221l-0.1,0.736c0.049,0.117,0.19,0.148,0.175,0.221
		c-0.008,0.108-0.252,0.53-0.722,0.513c0.063,0.24,0.232,0.354,0.17,0.733c-0.041,0.24-0.479,0.272-0.776,0.437
		c-0.29,0.155-0.162,0.241-0.325,0.257c-0.044-0.016-0.083-0.016-0.117-0.016c-4.17-0.727-4.326-5.987-1.194-8.014l0.951,0.326
		c0.267,0.087,0.247,0.096-0.057,0.206c-0.119,0.029-0.252,0.054-0.381,0.082c-0.329,0.063-0.363,0.063-0.014,0.177
		c0.395,0.146,0.864,0.235,1.154,0.322c0.151,0.067,0.146,0.105,0.254-0.04c0.126-0.167,0.126-0.37,0.028-0.585
		c0.218,0,0.397-0.021,0.544-0.108c0.3-0.171,0.201-0.291-0.108-0.265c-0.211,0.01-0.414,0.068-0.61,0.019l-1.328-0.371
		c0.505-0.461,1.527-0.93,2.647-0.857l0.501-1.845L30.633,26.011z M27.395,37.385c1.276,1.076,3.179,0.278,2.146,1.076
		c-3.433,2.612-8.474-1.913-9.16-5.712c0.158,0.011,0.301,0.011,0.464,0c0.696,1.529,0.915,2.135,2.392,3.253
		c0.809,0.62,1.569,0.896,2.658,0.996C26.802,37.071,26.676,36.759,27.395,37.385 M35.901,24.032
		c0.842,2.142,0.743,5.054-1.156,6.238c-0.657,0.407-0.918-0.044-0.434-0.55c0.362-0.369,0.353-1.195,0.236-1.626
		c-0.501-1.76-3.781-2.908-5.333-3.383c0.592-2.228,0.278-4.459-0.63-6.571C31.695,19.049,34.664,20.88,35.901,24.032
		 M15.799,52.216c-0.498-5.321-0.186-15.056,2.127-19.927c0.527,0.11,1.019,0.267,1.554,0.355c-0.013,0.084-0.058,0.7-0.058,0.771
		c-0.47,7.2,2.379,11.754,6.552,13.868C25.516,51.964,19.583,52.999,15.799,52.216 M30.512,39.609
		c0.982,1.674-0.523,6.136-2.558,6.513c-5.377-1.137-8.634-8.396-8.14-13.424c0.079,0.004,0.159,0.021,0.228,0.03
		c0.022,0.213,0.113,0.592,0.164,0.797C21.225,37.485,26.144,41.81,30.512,39.609"/>
	<g>
		<path fill-rule="evenodd" clip-rule="evenodd" fill="#FFFFFF" d="M72.327,29.912v-5.685h-1.759v-1.506h4.808v1.506h-1.739v5.685
			H72.327z M119.869,25.174v-2.011c-1.16-1.042-2.754-0.893-3.74,0.429c-0.542,0.741-0.818,1.702-0.818,2.734
			c0,1.195,0.375,2.292,1.105,3.034c1.007,1.045,2.399,1.018,3.452,0.093v-1.821c-0.762,0.834-2,1.35-2.793,0.259
			c-0.287-0.391-0.429-0.94-0.429-1.592c0-0.658,0.151-1.198,0.435-1.615c0.661-0.937,1.658-0.75,2.361-0.025L119.869,25.174z
			 M103.786,21.956l0.46-0.611l-0.322-0.418l-0.771,1.023L103.786,21.956z M84.839,25.174v-2.011
			c-1.151-1.042-2.747-0.893-3.733,0.429c-0.558,0.741-0.816,1.702-0.816,2.734c0,1.195,0.368,2.292,1.101,3.034
			c1.011,1.045,2.39,1.018,3.448,0.093v-1.821c-0.759,0.834-1.986,1.35-2.772,0.259c-0.3-0.391-0.451-0.94-0.451-1.592
			c0-0.658,0.151-1.198,0.451-1.615c0.655-0.937,1.649-0.75,2.352-0.025L84.839,25.174z M112.097,26.515V25.91h-2.328v1.472h1.035
			v1.047c-0.229,0.087-0.468,0.146-0.709,0.146c-1.036,0-1.684-0.999-1.684-2.317c0-0.633,0.164-1.171,0.49-1.605
			c0.525-0.701,1.362-0.829,2.028-0.414c0.258,0.151,0.51,0.402,0.764,0.739l0.143-1.801c-0.263-0.229-0.552-0.403-0.849-0.523
			c-1.052-0.41-2.266-0.117-3.059,0.911c-0.559,0.73-0.849,1.644-0.849,2.77c0,2.197,1.237,3.807,2.922,3.807
			c0.736,0,1.466-0.304,2.096-0.724V26.515z M113.212,29.912h1.315v-7.19h-1.315V29.912z M97.496,23.323v6.589h3.456v-1.55h-2.146
			v-5.64h-1.318L97.496,23.323z M85.733,23.323v6.589h1.21v-3.919l3.218,3.919h0.348v-7.19h-1.211v3.964l-3.248-3.964l-0.316-0.006
			V23.323z M76.202,23.323v6.589h3.421v-1.521h-2.146v-1.419h1.251v-1.469h-1.251v-1.291h2.125v-1.489h-3.399V23.323z M91.18,26.326
			c0-2.098,1.207-3.843,2.821-3.843c1.641,0,2.801,1.745,2.801,3.843c0,2.057-1.16,3.815-2.801,3.815
			C92.387,30.141,91.18,28.382,91.18,26.326 M92.541,26.326c0,1.105,0.533,2.19,1.46,2.19c0.924,0,1.45-1.076,1.45-2.19
			c0-1.132-0.526-2.219-1.45-2.219C93.074,24.106,92.541,25.194,92.541,26.326 M100.893,26.326c0-0.537,0.072-1.033,0.208-1.499
			c0.417-1.406,1.436-2.345,2.597-2.345c1.646,0,2.805,1.757,2.805,3.843c0,2.083-1.185,3.815-2.805,3.815
			C102.071,30.141,100.893,28.362,100.893,26.326 M102.245,26.326c0,1.105,0.531,2.19,1.454,2.19c0.927,0,1.461-1.076,1.461-2.19
			c0-1.132-0.534-2.219-1.461-2.219C102.776,24.106,102.245,25.194,102.245,26.326 M123.074,22.482c1.154,0,2.203,0.939,2.606,2.318
			c0.15,0.466,0.208,0.972,0.208,1.525c0,2.057-1.169,3.815-2.815,3.815c-1.618,0-2.804-1.765-2.804-3.807
			C120.263,24.266,121.435,22.482,123.074,22.482 M121.618,26.326c0,1.105,0.538,2.19,1.456,2.19c0.928,0,1.459-1.076,1.459-2.19
			c0-1.132-0.531-2.219-1.459-2.219C122.149,24.106,121.618,25.194,121.618,26.326"/>
		<path fill-rule="evenodd" clip-rule="evenodd" fill="#FFFFFF" d="M135.982,35.837c-0.747-0.723-1.783-0.909-2.479,0.015
			c-0.627,0.833-0.637,2.366,0,3.188c0.828,1.089,2.121,0.569,2.918-0.264v1.813c-1.106,0.924-2.556,0.942-3.625-0.089
			c-1.423-1.376-1.551-4.145-0.298-5.744c1.038-1.303,2.7-1.447,3.923-0.413v1.994L135.982,35.837z M120.92,33.443l0.278-0.352
			l-0.342-0.418l-0.614,0.77H120.92z M129.63,34.503v6.546h1.384V33.9h-1.384V34.503z M125.063,37.353l-2.087,3.696h1.521
			l1.335-2.432l1.401,2.432h1.696l-2.28-3.862l1.863-3.286H127l-1.111,2.05l-1.2-2.05h-1.329L125.063,37.353z M118.885,34.503v6.546
			h3.598v-1.505h-2.254v-1.42h1.357v-1.459h-1.357v-1.292h2.22V33.9h-3.564V34.503z M112.624,33.9l-1.185,7.148h1.225l0.502-3.313
			l1.536,3.313h0.351l1.428-3.265l0.501,3.265h1.312l-1.179-7.148h-0.243l-1.947,4.42l-2.078-4.42H112.624z M138.312,37.485
			c0,1.093,0.559,2.173,1.528,2.173c0.969,0,1.536-1.067,1.536-2.173c0-1.121-0.556-2.2-1.536-2.2
			C138.87,35.285,138.312,36.364,138.312,37.485 M136.892,37.485c0-2.067,1.227-3.812,2.947-3.812c1.737,0,2.955,1.739,2.955,3.812
			c0,2.074-1.248,3.788-2.955,3.788C138.126,41.273,136.892,39.512,136.892,37.485"/>
		<path fill-rule="evenodd" clip-rule="evenodd" fill="#FFFFFF" d="M98.652,34.4v6.519h1.536c0.722,0,1.374-0.088,2.017-0.548
			c0.917-0.649,1.418-1.688,1.418-3.019c0-1.084-0.317-1.955-0.918-2.597c-0.608-0.625-1.453-0.949-2.517-0.949h-1.536V34.4z
			 M104.391,34.4v6.519h3.574v-1.508h-2.237v-1.4h1.451v-1.457h-1.451v-1.277h2.208v-1.469c-1.333,0-2.218,0.012-3.545,0.012V34.4z
			 M90.867,40.919h3.615v-1.534H92.24v-5.578h-1.373V40.919z M84.549,40.919h1.367l0.377-1.035h2.332l0.376,1.035h1.431
			l-2.782-7.112h-0.261L84.549,40.919z M86.688,38.654l0.764-2.221l0.751,2.221H86.688z M79.15,34.4v6.519h1.265v-3.888l3.34,3.856
			h0.366v-7.081h-1.256v3.908l-3.394-3.908H79.15V34.4z M70.529,34.4v6.519h1.379v-7.112h-1.379V34.4z M68.949,35.719
			c-0.741-0.708-1.766-0.888-2.458,0.026c-0.311,0.418-0.461,0.948-0.461,1.586c0,0.658,0.151,1.184,0.461,1.595
			c0.826,1.076,2.11,0.553,2.895-0.271v1.8c-1.093,0.926-2.545,0.938-3.606-0.083c-0.764-0.744-1.148-1.821-1.148-3.019
			c0-1.01,0.288-1.955,0.855-2.688c1.035-1.303,2.698-1.439,3.899-0.424v1.982L68.949,35.719z M59.06,40.919h1.376l0.382-1.035
			h2.336l0.355,1.035h1.436l-2.773-7.112h-0.271L59.06,40.919z M61.209,38.654l0.772-2.221l0.742,2.221H61.209z M53.667,40.919
			v-7.112h0.326l3.389,3.908v-3.908h1.265v7.112h-0.371l-3.328-3.888v3.888H53.667z M72.701,37.353c0-2.06,1.245-3.779,2.935-3.779
			c1.721,0,2.926,1.73,2.926,3.779c0,2.059-1.218,3.792-2.926,3.792C73.953,41.145,72.701,39.411,72.701,37.353 M74.111,37.353
			c0,1.105,0.564,2.183,1.524,2.183c0.965,0,1.523-1.074,1.523-2.183c0-1.104-0.559-2.18-1.523-2.18
			C74.662,35.173,74.111,36.253,74.111,37.353 M100.009,39.385v-4.059h0.304c0.609,0,1.083,0.179,1.407,0.54
			c0.338,0.356,0.515,0.85,0.515,1.486c0,0.639-0.177,1.136-0.515,1.489c-0.324,0.364-0.797,0.543-1.407,0.543H100.009z"/>
		<path fill-rule="evenodd" clip-rule="evenodd" fill="#FFFFFF" d="M145.514,37.489c1.042,0,1.855,0.831,1.855,1.858
			c0,1.05-0.835,1.862-1.861,1.862c-1.036,0-1.857-0.823-1.846-1.886C143.666,38.32,144.494,37.489,145.514,37.489 M145.514,37.751
			c-0.873-0.015-1.593,0.707-1.593,1.573c0,0.913,0.702,1.622,1.587,1.632c0.886,0,1.6-0.708,1.602-1.608
			C147.12,38.461,146.401,37.751,145.514,37.751"/>
		<path fill-rule="evenodd" clip-rule="evenodd" fill="#FFFFFF" d="M145.123,39.544v0.805h-0.358v-2.015h0.012
			c0.39,0,0.763-0.053,1.139,0.023c0.386,0.085,0.567,0.544,0.343,0.857c-0.07,0.092-0.158,0.133-0.374,0.196
			c0.031,0.012,0.051,0.016,0.066,0.016c0.208,0.076,0.366,0.262,0.366,0.517v0.417h-0.299c-0.008-0.058-0.017-0.123-0.017-0.174
			c-0.019-0.106-0.019-0.204-0.026-0.301c-0.039-0.202-0.142-0.299-0.327-0.315C145.479,39.56,145.306,39.56,145.123,39.544
			 M145.137,39.307c0.101,0,0.204,0,0.301,0c0.097-0.011,0.21-0.011,0.303-0.028c0.168-0.037,0.241-0.164,0.26-0.328
			c0-0.19-0.065-0.296-0.218-0.333c-0.212-0.067-0.435-0.043-0.646-0.043V39.307z"/>
	</g>
</g>
<g>
	<path fill-rule="evenodd" clip-rule="evenodd" fill="#FFFFFF" d="M209.526,29.654c0,0-5.951,1.326-5.984,2.162
		c-0.033,0.835,1.666,2.54,11.329,3.142c9.664,0.603-9.123,0.265-13.268-2.09C197.459,30.512,209.526,29.654,209.526,29.654z"/>
	<path fill-rule="evenodd" clip-rule="evenodd" fill="#FFFFFF" d="M234.126,29.85c0,0,7.042,1.041,5.972,2.883
		c-1.069,1.843-11.556,2.287-11.556,2.287s10.22,0.188,13.474-1.956C245.269,30.92,234.885,29.895,234.126,29.85z"/>
	<g>
		<path fill="#FFFFFF" d="M194.784,24.482l3.907,0.804l-0.182,0.888l-3.907-0.805L194.784,24.482z"/>
		<path fill="#FFFFFF" d="M198.796,24.626l-3.785-1.262l0.334-1l1.648-0.324c0.474-0.091,1.021-0.159,1.503-0.186l0.006-0.017
			c-0.519-0.11-1.035-0.264-1.603-0.452l-1.106-0.369l0.262-0.786l3.786,1.262l-0.301,0.898l-1.729,0.322
			c-0.479,0.089-1.05,0.174-1.555,0.211v0.02c0.507,0.144,1.044,0.311,1.662,0.517l1.141,0.379L198.796,24.626z"/>
		<path fill="#FFFFFF" d="M199.304,20.468c0.221-0.16,0.5-0.436,0.676-0.778c0.188-0.369,0.134-0.643-0.098-0.761
			c-0.222-0.112-0.434-0.009-0.805,0.34c-0.507,0.486-1.03,0.705-1.547,0.441c-0.607-0.31-0.813-1.052-0.386-1.891
			c0.204-0.4,0.439-0.652,0.642-0.815l0.558,0.51c-0.142,0.107-0.37,0.31-0.548,0.657c-0.177,0.348-0.104,0.598,0.079,0.692
			c0.227,0.115,0.43-0.034,0.838-0.404c0.552-0.509,1.029-0.638,1.53-0.383c0.596,0.304,0.867,1.021,0.37,1.996
			c-0.206,0.406-0.516,0.754-0.729,0.897L199.304,20.468z"/>
		<path fill="#FFFFFF" d="M199.322,15.734l-0.607,0.883l-0.624-0.431l1.74-2.525l0.623,0.43l-0.618,0.896l2.662,1.834l-0.513,0.746
			L199.322,15.734z"/>
		<path fill="#FFFFFF" d="M200.935,12.382l3.044,2.581l-0.587,0.69l-3.043-2.581L200.935,12.382z"/>
		<path fill="#FFFFFF" d="M202.728,11.578l-0.771,0.743l-0.526-0.545l2.208-2.129l0.524,0.546l-0.783,0.756l2.243,2.326
			l-0.652,0.629L202.728,11.578z"/>
		<path fill="#FFFFFF" d="M205.081,8.526l1.332,1.87c0.398,0.56,0.813,0.692,1.189,0.425c0.386-0.274,0.405-0.696-0.003-1.27
			l-1.332-1.87L207,7.159l1.297,1.822c0.715,1.003,0.549,1.841-0.3,2.445c-0.819,0.584-1.624,0.474-2.363-0.563l-1.291-1.813
			L205.081,8.526z"/>
		<path fill="#FFFFFF" d="M209.097,6.873l-0.955,0.486l-0.343-0.676l2.733-1.39l0.343,0.676l-0.971,0.493l1.464,2.882l-0.808,0.41
			L209.097,6.873z"/>
		<path fill="#FFFFFF" d="M215.305,5.68c0.416,1.241-0.084,2.245-1.189,2.616c-1.122,0.376-2.063-0.252-2.425-1.329
			c-0.38-1.134,0.06-2.225,1.177-2.599C214.03,3.979,214.956,4.636,215.305,5.68z M212.589,6.646
			c0.248,0.741,0.771,1.146,1.344,0.955c0.578-0.194,0.726-0.855,0.479-1.591c-0.228-0.679-0.749-1.153-1.338-0.956
			C212.495,5.249,212.342,5.911,212.589,6.646z"/>
		<path fill="#FFFFFF" d="M217.65,4.063l-1.063,0.139l-0.099-0.751l3.041-0.396l0.099,0.751l-1.081,0.141l0.419,3.205l-0.898,0.117
			L217.65,4.063z"/>
		<path fill="#FFFFFF" d="M222.748,5.305l-1.467,0.023l0.015,0.947l1.64-0.027l0.012,0.74l-2.544,0.041l-0.066-3.989L222.799,3
			l0.013,0.74l-1.557,0.025l0.014,0.828l1.468-0.024L222.748,5.305z"/>
		<path fill="#FFFFFF" d="M226.352,7.325c-0.175,0.06-0.559,0.098-1.038,0.032c-1.367-0.187-1.956-1.133-1.802-2.259
			c0.183-1.35,1.247-1.969,2.445-1.806c0.463,0.063,0.802,0.204,0.948,0.309l-0.277,0.685c-0.171-0.101-0.414-0.206-0.731-0.249
			c-0.709-0.097-1.318,0.256-1.438,1.137c-0.108,0.792,0.293,1.354,1.09,1.463c0.271,0.036,0.577,0.019,0.764-0.027L226.352,7.325z"
			/>
		<path fill="#FFFFFF" d="M226.771,7.523l1.146-3.821l1.009,0.303l0.374,1.639c0.105,0.471,0.189,1.015,0.23,1.497l0.018,0.005
			c0.094-0.521,0.232-1.043,0.403-1.615l0.336-1.117l0.795,0.238l-1.148,3.821L229.028,8.2l-0.374-1.719
			c-0.104-0.477-0.206-1.044-0.259-1.549l-0.019,0.001c-0.131,0.511-0.28,1.053-0.466,1.677l-0.346,1.151L226.771,7.523z"/>
		<path fill="#FFFFFF" d="M234.688,8.503c-0.584,1.171-1.647,1.526-2.691,1.006c-1.059-0.529-1.278-1.638-0.771-2.655
			c0.533-1.069,1.616-1.528,2.669-1.002C234.992,6.398,235.181,7.519,234.688,8.503z M232.086,7.264
			c-0.349,0.699-0.266,1.355,0.274,1.625c0.545,0.272,1.117-0.091,1.463-0.784c0.32-0.642,0.287-1.346-0.269-1.623
			C233.009,6.209,232.432,6.569,232.086,7.264z"/>
		<path fill="#FFFFFF" d="M236.428,7.34l0.741,0.521l-1.854,2.646l1.299,0.91l-0.436,0.621l-2.041-1.431L236.428,7.34z"/>
		<path fill="#FFFFFF" d="M240.39,13.129c-0.893,0.957-2.014,0.996-2.866,0.201c-0.867-0.808-0.764-1.933,0.012-2.765
			c0.814-0.875,1.982-1.009,2.844-0.205C241.275,11.195,241.14,12.323,240.39,13.129z M238.244,11.202
			c-0.533,0.571-0.641,1.225-0.197,1.636c0.445,0.416,1.095,0.229,1.624-0.338c0.489-0.523,0.657-1.208,0.203-1.632
			C239.428,10.453,238.772,10.635,238.244,11.202z M241.717,10.401l-1.024,0.04l-0.528-0.492l0.86-0.194L241.717,10.401z"/>
		<path fill="#FFFFFF" d="M241.442,17.494c-0.244-0.164-0.667-0.504-0.987-0.922c-0.441-0.579-0.615-1.109-0.556-1.616
			c0.05-0.5,0.342-0.977,0.812-1.327c1.058-0.8,2.244-0.493,3.039,0.547c0.313,0.408,0.473,0.785,0.516,0.998l-0.688,0.288
			c-0.058-0.232-0.162-0.495-0.427-0.844c-0.456-0.597-1.141-0.79-1.828-0.266c-0.652,0.5-0.727,1.203-0.276,1.792
			c0.125,0.164,0.243,0.281,0.315,0.316l0.664-0.507l-0.374-0.489l0.56-0.428l0.901,1.181L241.442,17.494z"/>
		<path fill="#FFFFFF" d="M245.461,16.879l-3.432,2.036l-0.462-0.779l3.432-2.036L245.461,16.879z"/>
		<path fill="#FFFFFF" d="M243.707,22.109c-0.145-0.116-0.38-0.419-0.582-0.86c-0.573-1.255-0.088-2.257,0.944-2.729
			c1.239-0.565,2.332,0.002,2.834,1.101c0.194,0.425,0.255,0.788,0.247,0.967l-0.728,0.132c-0.007-0.199-0.047-0.46-0.18-0.752
			c-0.299-0.65-0.923-0.978-1.73-0.608c-0.728,0.333-0.986,0.973-0.653,1.704c0.113,0.248,0.294,0.498,0.431,0.63L243.707,22.109z"
			/>
		<path fill="#FFFFFF" d="M246.665,25.362c-1.258,0.356-2.238-0.189-2.557-1.312c-0.323-1.14,0.349-2.049,1.442-2.359
			c1.15-0.326,2.219,0.165,2.539,1.298C248.425,24.168,247.725,25.063,246.665,25.362z M245.827,22.604
			c-0.751,0.213-1.18,0.716-1.016,1.298c0.165,0.586,0.819,0.764,1.564,0.552c0.69-0.195,1.188-0.693,1.02-1.291
			C247.229,22.575,246.573,22.392,245.827,22.604z"/>
	</g>
	<g>
		<path fill="#FFFFFF" d="M195.733,37.043c-0.05,0.188-0.08,0.467-0.021,0.735c0.063,0.288,0.218,0.415,0.398,0.375
			c0.173-0.038,0.243-0.191,0.289-0.553c0.06-0.498,0.25-0.856,0.654-0.944c0.474-0.105,0.925,0.211,1.07,0.867
			c0.069,0.314,0.054,0.561,0.016,0.741l-0.539-0.028c0.029-0.123,0.064-0.339,0.005-0.611c-0.061-0.272-0.214-0.377-0.358-0.345
			c-0.178,0.038-0.222,0.213-0.278,0.602c-0.073,0.531-0.278,0.819-0.671,0.905c-0.467,0.104-0.942-0.169-1.11-0.933
			c-0.07-0.317-0.057-0.65-0.004-0.826L195.733,37.043z"/>
		<path fill="#FFFFFF" d="M198.54,39.296l-1.563,0.499c-0.468,0.149-0.648,0.402-0.549,0.717c0.103,0.322,0.386,0.427,0.865,0.274
			l1.563-0.499l0.194,0.612l-1.523,0.486c-0.837,0.268-1.371-0.029-1.597-0.738c-0.219-0.685,0.031-1.208,0.897-1.484l1.515-0.483
			L198.54,39.296z"/>
		<path fill="#FFFFFF" d="M199.185,41.345c0.108,0.171,0.239,0.418,0.392,0.781c0.152,0.366,0.193,0.657,0.126,0.892
			c-0.063,0.223-0.233,0.428-0.491,0.535s-0.512,0.113-0.726,0.02c-0.276-0.123-0.487-0.387-0.634-0.738
			c-0.033-0.078-0.059-0.15-0.074-0.208l-0.94,0.394l-0.246-0.589L199.185,41.345z M198.237,42.433
			c0.01,0.057,0.032,0.121,0.068,0.206c0.132,0.316,0.373,0.445,0.643,0.331c0.242-0.101,0.316-0.328,0.192-0.625
			c-0.051-0.121-0.098-0.198-0.127-0.236L198.237,42.433z"/>
		<path fill="#FFFFFF" d="M199.471,45.768l-0.481-0.931l-0.602,0.309l0.538,1.042l-0.47,0.242l-0.834-1.615l2.532-1.307l0.807,1.563
			l-0.47,0.242l-0.51-0.988l-0.526,0.272l0.481,0.931L199.471,45.768z"/>
		<path fill="#FFFFFF" d="M201.128,45.445c0.139,0.157,0.326,0.404,0.509,0.693c0.226,0.358,0.33,0.643,0.302,0.899
			c-0.023,0.215-0.142,0.4-0.364,0.54c-0.308,0.195-0.656,0.109-0.862-0.051l-0.011,0.008c0.038,0.21-0.063,0.405-0.247,0.605
			c-0.225,0.246-0.492,0.521-0.555,0.626l-0.353-0.558c0.043-0.082,0.204-0.264,0.455-0.523c0.26-0.254,0.277-0.409,0.14-0.634
			l-0.104-0.164l-0.947,0.599l-0.341-0.54L201.128,45.445z M200.432,46.64l0.136,0.214c0.171,0.272,0.409,0.348,0.62,0.215
			c0.222-0.141,0.237-0.36,0.083-0.613c-0.083-0.133-0.142-0.2-0.174-0.235L200.432,46.64z"/>
		<path fill="#FFFFFF" d="M202.872,47.977l-2.293,1.69l-0.384-0.521l2.293-1.691L202.872,47.977z"/>
		<path fill="#FFFFFF" d="M203.813,51.241c-0.701,0.619-1.501,0.568-2.052-0.055c-0.56-0.635-0.408-1.429,0.2-1.966
			c0.64-0.565,1.48-0.578,2.037,0.052C204.577,49.93,204.401,50.721,203.813,51.241z M202.421,49.722
			c-0.419,0.37-0.54,0.827-0.255,1.15c0.289,0.327,0.765,0.239,1.18-0.127c0.384-0.339,0.551-0.813,0.257-1.146
			C203.315,49.271,202.837,49.356,202.421,49.722z"/>
		<path fill="#FFFFFF" d="M205.057,50.539c0.178,0.111,0.425,0.298,0.681,0.525c0.316,0.28,0.495,0.523,0.541,0.778
			c0.037,0.214-0.024,0.424-0.198,0.62c-0.242,0.271-0.601,0.288-0.843,0.191l-0.008,0.01c0.095,0.191,0.051,0.407-0.069,0.65
			c-0.146,0.3-0.327,0.638-0.358,0.756l-0.494-0.438c0.02-0.092,0.122-0.311,0.292-0.628c0.179-0.317,0.151-0.471-0.042-0.648
			l-0.146-0.128l-0.743,0.838l-0.479-0.423L205.057,50.539z M204.721,51.88l0.189,0.169c0.241,0.212,0.489,0.219,0.655,0.031
			c0.174-0.195,0.127-0.412-0.092-0.612c-0.116-0.103-0.19-0.152-0.231-0.176L204.721,51.88z"/>
		<path fill="#FFFFFF" d="M207.498,52.591c0.221,0.093,0.493,0.238,0.77,0.412c0.458,0.286,0.704,0.556,0.827,0.876
			c0.134,0.344,0.106,0.74-0.16,1.167c-0.29,0.462-0.657,0.676-1.015,0.728c-0.387,0.052-0.836-0.091-1.31-0.386
			c-0.283-0.178-0.472-0.321-0.598-0.425L207.498,52.591z M206.813,54.905c0.039,0.04,0.115,0.087,0.183,0.13
			c0.493,0.313,0.986,0.242,1.348-0.335c0.317-0.499,0.188-0.949-0.28-1.242c-0.122-0.076-0.208-0.115-0.261-0.133L206.813,54.905z"
			/>
		<path fill="#FFFFFF" d="M210.765,56.22l-0.949-0.445l-0.287,0.612l1.061,0.497l-0.225,0.479l-1.646-0.771l1.209-2.581l1.594,0.748
			l-0.225,0.478l-1.008-0.472l-0.25,0.536l0.948,0.444L210.765,56.22z"/>
		<path fill="#FFFFFF" d="M214.452,57.556c0.081-0.333,0.182-0.735,0.294-1.135l-0.013-0.002c-0.185,0.325-0.407,0.684-0.604,0.976
			l-0.636,0.977l-0.484-0.136l0.006-1.146c0-0.347,0.018-0.764,0.054-1.141l-0.009-0.003c-0.12,0.366-0.251,0.786-0.369,1.123
			l-0.341,1.027l-0.574-0.161l0.947-2.693l0.825,0.231l0.012,0.992c-0.004,0.341-0.014,0.708-0.044,1.046l0.013,0.004
			c0.166-0.296,0.361-0.632,0.537-0.912l0.549-0.829l0.812,0.228l-0.623,2.786l-0.605-0.17L214.452,57.556z"/>
		<path fill="#FFFFFF" d="M216.264,58.281l-0.311,0.692l-0.661-0.101l1.293-2.686l0.835,0.128l0.442,2.951l-0.685-0.105
			l-0.106-0.756L216.264,58.281z M217.052,57.914l-0.084-0.624c-0.024-0.176-0.042-0.391-0.059-0.565l-0.009-0.002
			c-0.067,0.161-0.143,0.369-0.212,0.524l-0.26,0.572L217.052,57.914z"/>
		<path fill="#FFFFFF" d="M218.577,56.5c0.208-0.021,0.519-0.026,0.859-0.006c0.422,0.026,0.714,0.108,0.906,0.28
			c0.161,0.146,0.241,0.35,0.225,0.612c-0.021,0.362-0.295,0.596-0.545,0.669l-0.001,0.013c0.193,0.093,0.291,0.289,0.348,0.556
			c0.068,0.326,0.134,0.703,0.182,0.815l-0.658-0.04c-0.041-0.083-0.094-0.319-0.157-0.675c-0.054-0.359-0.171-0.464-0.432-0.485
			l-0.194-0.012l-0.069,1.118l-0.638-0.038L218.577,56.5z M219.139,57.764l0.253,0.017c0.32,0.02,0.521-0.13,0.535-0.378
			c0.018-0.262-0.152-0.404-0.447-0.427c-0.157-0.009-0.246-0.003-0.293,0.004L219.139,57.764z"/>
		<path fill="#FFFFFF" d="M221.553,57.128l-0.766,0.015l-0.011-0.542l2.19-0.042l0.01,0.542l-0.777,0.014l0.044,2.31l-0.646,0.013
			L221.553,57.128z"/>
		<path fill="#FFFFFF" d="M224.256,55.802l-0.485,0.552l-0.516,0.033l0.327-0.542L224.256,55.802z M223.902,56.497l0.182,2.844
			l-0.646,0.041l-0.18-2.844L223.902,56.497z"/>
		<path fill="#FFFFFF" d="M224.759,59.306l-0.372-2.826l0.745-0.098l0.725,0.958c0.206,0.275,0.42,0.605,0.587,0.908l0.014-0.002
			c-0.091-0.367-0.155-0.747-0.209-1.171l-0.11-0.826l0.588-0.077l0.373,2.825l-0.672,0.089l-0.747-1.01
			c-0.208-0.28-0.44-0.621-0.622-0.934l-0.013,0.006c0.067,0.371,0.127,0.768,0.188,1.229l0.111,0.852L224.759,59.306z"/>
		<path fill="#FFFFFF" d="M229.193,57.302l-1.022,0.235l0.151,0.659l1.142-0.263l0.119,0.516l-1.772,0.406l-0.638-2.778l1.716-0.393
			l0.117,0.516l-1.083,0.248l0.131,0.577l1.023-0.233L229.193,57.302z"/>
		<path fill="#FFFFFF" d="M229.886,58.015l0.675-2.281l-0.005-0.016l-1.169,0.386l-0.167-0.505l1.962-0.65l0.117,0.354l-0.654,2.248
			l0.006,0.016l1.279-0.424l0.167,0.506l-2.103,0.695L229.886,58.015z"/>
		<path fill="#FFFFFF" d="M232.233,54.563c0.192-0.142,0.458-0.303,0.748-0.452c0.481-0.246,0.837-0.32,1.176-0.263
			c0.364,0.061,0.69,0.287,0.92,0.734c0.25,0.485,0.245,0.911,0.107,1.243c-0.153,0.359-0.506,0.674-1.001,0.929
			c-0.298,0.152-0.518,0.243-0.67,0.297L232.233,54.563z M233.872,56.335c0.056-0.014,0.133-0.055,0.204-0.092
			c0.522-0.263,0.713-0.722,0.401-1.328c-0.266-0.528-0.717-0.647-1.21-0.394c-0.129,0.065-0.204,0.118-0.249,0.156L233.872,56.335z
			"/>
		<path fill="#FFFFFF" d="M237.023,53.615l-0.869,0.587l0.379,0.561l0.972-0.655l0.296,0.438l-1.506,1.018l-1.596-2.361l1.457-0.984
			l0.295,0.438l-0.921,0.623l0.332,0.49l0.868-0.587L237.023,53.615z"/>
		<path fill="#FFFFFF" d="M237.096,51.469l0.481-0.433l1.547,1.714l0.84-0.76l0.363,0.401l-1.321,1.193L237.096,51.469z"/>
		<path fill="#FFFFFF" d="M240.648,50.988l0.412,0.638l-0.443,0.499l-1.551-2.546l0.563-0.631l2.715,1.234l-0.46,0.518l-0.692-0.321
			L240.648,50.988z M240.77,50.127l-0.569-0.269c-0.16-0.074-0.353-0.177-0.506-0.259l-0.006,0.007
			c0.098,0.145,0.23,0.319,0.322,0.464l0.34,0.527L240.77,50.127z"/>
		<path fill="#FFFFFF" d="M241.517,47.386l-0.429,0.635l-0.448-0.304l1.227-1.813l0.449,0.302l-0.436,0.645l1.911,1.295
			l-0.362,0.535L241.517,47.386z"/>
		<path fill="#FFFFFF" d="M244.407,44.183c0.82,0.447,1.046,1.216,0.646,1.947c-0.403,0.742-1.2,0.871-1.914,0.482
			c-0.75-0.409-1.05-1.194-0.646-1.932C242.913,43.912,243.717,43.807,244.407,44.183z M243.454,46.009
			c0.49,0.268,0.96,0.226,1.167-0.154c0.209-0.382-0.035-0.799-0.522-1.064c-0.449-0.245-0.952-0.24-1.165,0.15
			C242.726,45.322,242.968,45.744,243.454,46.009z"/>
		<path fill="#FFFFFF" d="M243.336,43.234c0.05-0.205,0.148-0.499,0.282-0.813c0.165-0.39,0.339-0.637,0.566-0.761
			c0.191-0.104,0.409-0.111,0.65-0.008c0.335,0.143,0.464,0.478,0.451,0.738l0.011,0.004c0.151-0.151,0.369-0.178,0.639-0.142
			c0.332,0.044,0.707,0.108,0.83,0.101l-0.257,0.606c-0.093,0.012-0.332-0.017-0.69-0.076c-0.355-0.068-0.492,0.005-0.6,0.245
			l-0.076,0.179l1.032,0.439l-0.25,0.587L243.336,43.234z M244.714,43.126l0.101-0.234c0.126-0.295,0.053-0.532-0.177-0.631
			c-0.242-0.103-0.432,0.01-0.552,0.28c-0.062,0.145-0.085,0.231-0.095,0.277L244.714,43.126z"/>
		<path fill="#FFFFFF" d="M244.265,41c0.032-0.206,0.104-0.508,0.211-0.834c0.131-0.401,0.284-0.663,0.501-0.806
			c0.181-0.118,0.397-0.145,0.646-0.063c0.346,0.113,0.503,0.436,0.512,0.697l0.011,0.003c0.139-0.164,0.354-0.209,0.626-0.195
			c0.333,0.016,0.713,0.047,0.835,0.029l-0.204,0.626c-0.092,0.02-0.335,0.011-0.693-0.018c-0.361-0.038-0.492,0.048-0.577,0.296
			l-0.062,0.185l1.064,0.349l-0.199,0.607L244.265,41z M245.628,40.776l0.079-0.241c0.1-0.306,0.008-0.536-0.229-0.614
			c-0.25-0.081-0.43,0.046-0.526,0.326c-0.049,0.149-0.063,0.237-0.069,0.284L245.628,40.776z"/>
		<path fill="#FFFFFF" d="M246.943,37.41l-0.236,1.021l0.659,0.151l0.265-1.142l0.515,0.12l-0.411,1.771l-2.775-0.643l0.396-1.714
			l0.516,0.119l-0.252,1.084l0.577,0.133l0.236-1.021L246.943,37.41z"/>
	</g>
	<g>
		<path fill-rule="evenodd" clip-rule="evenodd" fill="#FFFFFF" d="M214.809,37.69c-0.073,0.062-0.115,0.103-0.162,0.135
			c-1.453,1.022-2.908,2.043-4.362,3.066c-0.151,0.107-0.301,0.22-0.441,0.342c-0.202,0.177-0.358,0.393-0.445,0.648
			c-0.127,0.374-0.076,0.737,0.089,1.088c0.174,0.37,0.424,0.687,0.737,0.946c0.348,0.286,0.707,0.563,1.065,0.835
			c0.297,0.226,0.6,0.442,0.905,0.657c0.233,0.164,0.475,0.314,0.764,0.367c0.38,0.07,0.721-0.006,1.022-0.25
			c0.201-0.165,0.354-0.367,0.471-0.597c0.489-0.951,0.979-1.903,1.471-2.854c0.509-0.985,1.02-1.97,1.53-2.954
			c0.055-0.104,0.113-0.206,0.176-0.307c0.046-0.073,0.119-0.104,0.203-0.083c0.237,0.061,0.476,0.121,0.71,0.191
			c0.113,0.033,0.143,0.12,0.087,0.234c-0.108,0.22-0.223,0.437-0.337,0.653c-0.874,1.66-1.749,3.318-2.623,4.978
			c-0.105,0.199-0.21,0.399-0.305,0.604c-0.282,0.608-0.222,1.183,0.188,1.715c0.178,0.229,0.39,0.402,0.677,0.494
			c1.105,0.353,2.22,0.657,3.372,0.814c0.732,0.099,1.136-0.303,1.327-0.781c0.137-0.341,0.192-0.7,0.194-1.065
			c0.001-0.344-0.007-0.688-0.012-1.031c-0.022-1.276-0.047-2.555-0.067-3.83c-0.012-0.718-0.017-1.434-0.024-2.151
			c-0.003-0.307,0.047-0.356,0.356-0.363c0.167-0.003,0.335-0.003,0.502,0.001c0.065,0.003,0.132,0.021,0.211,0.032
			c0.008,0.088,0.021,0.163,0.021,0.239c-0.002,0.49-0.007,0.982-0.012,1.474c-0.016,1.797-0.029,3.594-0.046,5.392
			c-0.002,0.267,0.014,0.529,0.066,0.791c0.056,0.285,0.17,0.542,0.354,0.767c0.223,0.27,0.507,0.432,0.849,0.491
			c0.145,0.024,0.293,0.043,0.439,0.037c0.521-0.02,1.039-0.049,1.538-0.225c0.137-0.049,0.29-0.048,0.429-0.094
			c0.438-0.146,0.873-0.297,1.305-0.457c0.137-0.051,0.269-0.123,0.392-0.202c0.451-0.293,0.654-0.714,0.617-1.252
			c-0.022-0.318-0.112-0.616-0.261-0.898c-0.146-0.278-0.295-0.554-0.442-0.832c-0.242-0.46-0.483-0.921-0.725-1.381
			c-0.553-1.052-1.105-2.103-1.658-3.154c-0.114-0.217-0.23-0.434-0.345-0.65c-0.013-0.025-0.027-0.053-0.038-0.079
			c-0.058-0.133-0.033-0.293,0.173-0.325c0.164-0.024,0.325-0.068,0.486-0.109c0.259-0.066,0.357-0.03,0.479,0.207
			c0.288,0.559,0.572,1.118,0.854,1.68c0.327,0.648,0.639,1.305,0.977,1.946c0.33,0.625,0.614,1.273,0.94,1.899
			c0.111,0.218,0.229,0.435,0.354,0.645c0.065,0.108,0.148,0.207,0.231,0.305c0.425,0.499,1.102,0.526,1.581,0.259
			c0.805-0.446,1.521-1.006,2.159-1.669c0.217-0.228,0.423-0.466,0.631-0.701c0.149-0.172,0.274-0.361,0.347-0.578
			c0.136-0.409,0.068-0.794-0.166-1.152c-0.196-0.301-0.458-0.536-0.75-0.741c-0.624-0.443-1.252-0.883-1.876-1.326
			c-0.802-0.568-1.6-1.139-2.398-1.709c-0.053-0.038-0.098-0.088-0.155-0.142c0.042-0.037,0.066-0.068,0.1-0.085
			c0.261-0.135,0.525-0.265,0.788-0.398c0.117-0.061,0.215-0.051,0.325,0.033c0.304,0.23,0.62,0.447,0.928,0.673
			c0.689,0.504,1.378,1.009,2.066,1.516c0.324,0.238,0.646,0.479,0.97,0.72c0.189,0.143,0.396,0.255,0.617,0.336
			c0.486,0.177,0.929,0.087,1.335-0.216c0.231-0.173,0.41-0.397,0.532-0.658c0.122-0.257,0.241-0.517,0.337-0.784
			c0.215-0.61,0.427-1.223,0.616-1.842c0.133-0.431,0.229-0.874,0.34-1.312c0.011-0.037,0.017-0.076,0.024-0.114
			c0.041-0.161,0.146-0.253,0.303-0.287c0.078-0.016,0.156-0.023,0.233-0.04c0.124-0.027,0.245-0.063,0.371-0.087
			c0.222-0.04,0.443-0.08,0.666-0.107c0.124-0.015,0.203,0.075,0.188,0.205c-0.013,0.117-0.041,0.232-0.065,0.347
			c-0.101,0.461-0.191,0.924-0.305,1.381c-0.06,0.247-0.152,0.486-0.234,0.728c-0.072,0.214-0.155,0.423-0.22,0.639
			c-0.031,0.102-0.037,0.213-0.046,0.32c-0.012,0.166,0.045,0.293,0.188,0.404c0.27,0.21,0.52,0.447,0.78,0.671
			c0.536,0.461,1.062,0.934,1.616,1.371c0.248,0.198,0.254,0.592,0.115,0.826c-0.32,0.54-0.629,1.086-0.941,1.63
			c-0.146,0.254-0.294,0.509-0.441,0.763c-0.005,0.009-0.01,0.017-0.017,0.024c-0.21,0.3-0.354,0.354-0.702,0.24
			c-0.318-0.102-0.632-0.219-0.944-0.33c-0.657-0.233-1.313-0.469-1.971-0.699c-0.064-0.024-0.132-0.037-0.199-0.047
			c-0.156-0.021-0.295,0.015-0.404,0.13c-0.144,0.147-0.289,0.295-0.421,0.452c-0.522,0.629-1.111,1.189-1.724,1.727
			c-0.098,0.084-0.184,0.18-0.284,0.258c-0.112,0.087-0.156,0.202-0.146,0.335c0.009,0.116,0.021,0.236,0.057,0.346
			c0.078,0.243,0.172,0.481,0.258,0.721c0.072,0.202,0.146,0.405,0.219,0.608c0.128,0.36,0.26,0.719,0.386,1.08
			c0.064,0.185,0.114,0.376,0.182,0.561c0.071,0.194-0.008,0.436-0.221,0.582c-0.325,0.222-0.686,0.378-1.017,0.585
			c-0.433,0.27-0.873,0.527-1.313,0.788c-0.075,0.045-0.163,0.066-0.236,0.114c-0.195,0.125-0.375,0.084-0.547-0.045
			c-0.069-0.053-0.139-0.109-0.194-0.177c-0.353-0.422-0.696-0.85-1.051-1.271c-0.31-0.368-0.628-0.729-0.944-1.09
			c-0.183-0.212-0.395-0.262-0.66-0.162c-0.146,0.055-0.294,0.11-0.439,0.168c-0.385,0.153-0.782,0.261-1.184,0.357
			c-0.371,0.09-0.741,0.182-1.113,0.269c-0.085,0.021-0.175,0.024-0.261,0.046c-0.095,0.025-0.186,0.059-0.277,0.093
			c-0.162,0.063-0.24,0.187-0.273,0.355c-0.103,0.54-0.218,1.077-0.318,1.616c-0.072,0.396-0.125,0.797-0.192,1.192
			c-0.026,0.146-0.063,0.287-0.096,0.431c-0.052,0.23-0.208,0.35-0.431,0.389c-0.075,0.013-0.155,0.012-0.234,0.012
			c-0.894,0-1.787,0-2.682-0.001c-0.059,0-0.118,0.002-0.176-0.008c-0.188-0.032-0.333-0.126-0.384-0.318
			c-0.045-0.161-0.073-0.325-0.104-0.49c-0.035-0.182-0.064-0.365-0.099-0.548c-0.084-0.443-0.169-0.884-0.253-1.327
			c-0.024-0.135-0.048-0.271-0.071-0.405c-0.033-0.194-0.066-0.387-0.097-0.58c-0.021-0.127-0.072-0.223-0.199-0.269
			c-0.119-0.043-0.235-0.102-0.357-0.132c-0.43-0.104-0.861-0.198-1.29-0.302c-0.296-0.07-0.594-0.139-0.884-0.229
			c-0.251-0.078-0.492-0.19-0.741-0.28c-0.1-0.037-0.205-0.063-0.31-0.077c-0.154-0.02-0.283,0.022-0.389,0.154
			c-0.147,0.184-0.315,0.349-0.467,0.527c-0.21,0.247-0.399,0.514-0.623,0.746c-0.309,0.316-0.545,0.692-0.868,0.992
			c-0.057,0.054-0.089,0.132-0.144,0.187c-0.075,0.074-0.155,0.149-0.245,0.207c-0.105,0.067-0.225,0.067-0.338,0.011
			c-0.157-0.079-0.317-0.157-0.47-0.243c-0.393-0.225-0.782-0.453-1.172-0.68c-0.33-0.192-0.662-0.384-0.988-0.579
			c-0.067-0.04-0.129-0.092-0.182-0.147c-0.125-0.134-0.16-0.297-0.101-0.466c0.069-0.203,0.157-0.399,0.235-0.6
			c0.028-0.072,0.049-0.148,0.074-0.223c0.111-0.336,0.197-0.681,0.338-1.004c0.157-0.361,0.266-0.738,0.399-1.105
			c0.018-0.046,0.026-0.096,0.044-0.14c0.104-0.257,0.013-0.461-0.173-0.637c-0.202-0.187-0.4-0.378-0.612-0.552
			c-0.365-0.301-0.69-0.641-1.001-0.995c-0.2-0.229-0.395-0.462-0.597-0.688c-0.073-0.08-0.157-0.151-0.248-0.208
			c-0.063-0.04-0.147-0.063-0.222-0.063c-0.105,0.001-0.218,0.014-0.317,0.049c-0.499,0.176-0.995,0.363-1.493,0.543
			c-0.147,0.054-0.298,0.099-0.446,0.151c-0.333,0.117-0.664,0.24-0.999,0.352c-0.282,0.094-0.412,0.052-0.584-0.185
			c-0.104-0.144-0.2-0.292-0.287-0.445c-0.249-0.435-0.496-0.871-0.734-1.311c-0.125-0.232-0.275-0.449-0.403-0.679
			c-0.033-0.06-0.067-0.12-0.097-0.182c-0.106-0.23-0.088-0.439,0.11-0.615c0.287-0.252,0.576-0.502,0.865-0.754
			c0.281-0.244,0.563-0.488,0.843-0.732c0.23-0.2,0.452-0.408,0.691-0.594c0.255-0.197,0.314-0.418,0.199-0.722
			c-0.146-0.386-0.264-0.782-0.382-1.177c-0.078-0.263-0.134-0.532-0.2-0.798c-0.038-0.152-0.08-0.304-0.113-0.458
			c-0.049-0.229-0.096-0.461-0.137-0.692c-0.017-0.104,0.04-0.172,0.147-0.177c0.087-0.005,0.18-0.009,0.263,0.015
			c0.305,0.085,0.616,0.115,0.928,0.155c0.029,0.004,0.059,0.009,0.088,0.012c0.183,0.016,0.274,0.121,0.314,0.296
			c0.076,0.324,0.15,0.649,0.246,0.969c0.155,0.518,0.316,1.033,0.498,1.541c0.154,0.435,0.341,0.857,0.517,1.283
			c0.056,0.136,0.113,0.274,0.191,0.398c0.103,0.166,0.21,0.335,0.344,0.476c0.368,0.386,0.817,0.492,1.318,0.305
			c0.19-0.073,0.376-0.174,0.542-0.292c0.753-0.533,1.499-1.076,2.246-1.618c0.613-0.442,1.224-0.886,1.836-1.328
			c0.055-0.041,0.111-0.083,0.173-0.11c0.12-0.057,0.253-0.077,0.368-0.005C214.302,37.321,214.554,37.473,214.809,37.69z"/>
		<path fill-rule="evenodd" clip-rule="evenodd" fill="#FFFFFF" d="M222.641,39.563l0.114,6.549c0,0-0.229,1.533,0.984,1.326
			c1.213-0.205,3.113-0.755,3.113-0.755s0.732-0.253,0.229-1.19c-0.504-0.939-3.069-6.09-3.069-6.09L222.641,39.563z"/>
		<path fill-rule="evenodd" clip-rule="evenodd" fill="#FFFFFF" d="M220.374,39.677v6.8c0,0,0.159,1.091-0.847,0.98
			c-1.008-0.11-3.138-0.66-3.138-0.66s-0.869-0.298-0.252-1.419c0.619-1.121,2.954-5.884,2.954-5.884L220.374,39.677z"/>
		<path fill-rule="evenodd" clip-rule="evenodd" fill="#FFFFFF" d="M216.619,39.104l-2.587,5.244c0,0-0.39,0.961-1.19,0.412
			c-0.802-0.55-2.587-2.222-2.587-2.222s-0.505-0.663,0.411-1.189c0.917-0.527,4.373-3.046,4.373-3.046L216.619,39.104z"/>
		<path fill-rule="evenodd" clip-rule="evenodd" fill="#FFFFFF" d="M226.35,38.967l2.839,5.655c0,0,0.389,0.98,1.213,0.307
			c0.824-0.672,2.496-2.344,2.496-2.344s0.64-0.526-0.274-1.122c-0.917-0.595-4.556-3.319-4.556-3.319L226.35,38.967z"/>
		<path fill-rule="evenodd" clip-rule="evenodd" fill="#FFFFFF" d="M236.354,36.083c0,0-1.076,3.021-1.19,3.319
			c-0.114,0.298-0.71,0.549-1.235,0.206c-0.527-0.344-3.709-2.771-3.709-2.771l0.961-0.365L236.354,36.083z"/>
		<path fill-rule="evenodd" clip-rule="evenodd" fill="#FFFFFF" d="M212.836,37.072l-3.571,2.422c0,0-0.876,0.67-1.356-0.378
			c-0.481-1.047-1.134-3.091-1.134-3.091l5.546,0.533L212.836,37.072z"/>
	</g>
	<path fill="#FFFFFF" d="M221.595,10.578c-0.136,0-0.271,0.003-0.405,0.007c-0.292,0.649-0.456,1.37-0.456,2.128
		c0,2.87,2.325,5.197,5.197,5.197c2.345,0,4.326-1.553,4.973-3.686C228.458,11.962,225.188,10.578,221.595,10.578z"/>
	<path fill="#FFFFFF" d="M209.909,31.448c2.411,3.932,6.748,6.554,11.697,6.554c4.95,0,9.286-2.622,11.696-6.554H209.909z"/>
	<g>
		<defs>
			<path id="SVGID_1_" d="M235.319,24.291c0-0.376-0.016-0.747-0.046-1.115l-0.465,0.037l-1.262-1.273l-0.031-1.042l1.687,1.603
				c-0.023-0.178-0.05-0.354-0.08-0.53l-1.289-1.202l-0.059-0.283l0.972-0.12c-0.019-0.065-0.038-0.131-0.059-0.195l-0.771,0.116
				l0.645-0.487h0.004c-0.026-0.078-0.054-0.157-0.082-0.236l-0.045,0.033l-2.979-0.009l0,0l2.865-0.429
				c-0.031-0.076-0.063-0.153-0.094-0.229l-3.428,0.51l-3.354,4.096l-2.029-2.189l-0.125-0.105l-2.682-0.547l-0.194-0.177
				l-7.043,0.406l-5.913,1.023l-0.229,0.079l-1.335,1.992c-0.003,0.092-0.004,0.183-0.004,0.275c0,0.193,0.006,0.387,0.014,0.579
				l1.254-2.044l0.054-0.035v2.445l-1.281,0.102c0.187,2.469,1.027,4.754,2.347,6.685h0.252l-0.153-4.836h0.153v-0.494v-0.358
				l15.145-0.92v0.255l0.106,0.064l-0.236,5.472h-0.729v1.06h2.541l3.801-0.165v-0.895l-0.858-0.07l-0.54-4.919l0.135-0.092
				l-0.05-0.964l5.46-0.332C235.314,24.649,235.319,24.471,235.319,24.291z M214.952,21.168l0.064,0.169l-0.169,0.24l-1.51-0.11
				L214.952,21.168z M212.995,21.531l1.747,0.195l-0.165,0.234l-1.786-0.393L212.995,21.531z M214.515,22.048l-0.01,0.014
				l-1.858-0.011l0.275-0.351L214.515,22.048z M212.375,21.646l0.191-0.036l0.195,0.062l-0.27,0.375l-0.117,0.004V21.646z
				 M212.375,22.204h0.017l-0.017,0.025V22.204z M212.375,22.453l0.166-0.25l1.871-0.009l-0.021,0.03l-1.482,0.259l-0.533,0.036
				V22.453z M214.187,22.514l-0.703,0.997l-0.623-0.741l0.008-0.046L214.187,22.514z M210.622,25.125l-1.018,0.081l-0.113-2.729
				l0.063-0.078l1.546,2.103L210.622,25.125z M211.117,25.087l0.199-0.292l0.192,0.261L211.117,25.087z M212.157,25.003
				l-0.249,0.021l-0.396-0.517l0.646-0.947V25.003z M212.157,23.125l-0.854,1.113l-1.234-1.604l2.088,0.275V23.125z M212.157,22.513
				l-2.328-0.296l2.328-0.012V22.513z M212.157,22.048l-1.892-0.011l1.892-0.352V22.048z M212.532,24.972l-0.157,0.013v-1.743
				l0.054-0.08l0.104-0.023L212.532,24.972z M212.733,23.092l0.031-0.07l0.555,0.722l-0.635,0.9L212.733,23.092z M213.043,24.935
				l0.543-0.843l0.579,0.754L213.043,24.935z M215.199,24.764l-0.622,0.049l-0.823-0.98l0.897-1.393l0.548-0.088V24.764z
				 M215.199,22.084l-0.36,0.063l0.36-0.558V22.084z M221.854,20.727l0.065,0.227l-2.171-0.054l-0.118-0.032l0,0L221.854,20.727z
				 M219.26,20.935l0.006,0.002l-0.036,0.067l0.289,0.008l1.324,0.394l-1.819-0.142L219.26,20.935z M220.422,21.507l-1.637,0.09
				l0.132-0.185L220.422,21.507z M215.514,21.405l0.02-0.058l0.439,0.602l-0.459,0.08V21.405z M215.514,24.739v-2.438l0.641-0.102
				l0.888,1.215l-0.93,1.277L215.514,24.739z M216.437,22.154l1.722-0.275l-0.945,1.301L216.437,22.154z M216.594,24.653l0.67-0.935
				l0.608,0.834L216.594,24.653z M218.465,24.506l-0.235,0.018l-0.793-1.047l1.028-1.433V24.506z M218.465,21.458l-0.047,0.065
				l-2.173,0.378l-0.522-0.688l2.742,0.171V21.458z M218.465,21.221l-2.211-0.173l2.211-0.107V21.221z M218.748,20.923l0.111-0.008
				l-0.109,0.15L218.748,20.923z M218.763,21.729l2.69-0.126l-1.445,1.785l-1.241-1.421L218.763,21.729z M218.815,24.478
				l-0.04-2.101l1.033,1.258l-0.661,0.817L218.815,24.478z M219.557,24.419l0.435-0.561l0.407,0.493L219.557,24.419z M221.51,24.265
				l-0.684,0.054l-0.634-0.72l1.317-1.7V24.265z M220.223,21.03l1.658,0.044l-0.274,0.339L220.223,21.03z M222.207,24.21
				l-0.436,0.034v-2.657l0.436-0.02V24.21z M222.207,21.408l-0.33,0.019l0.248-0.321l0.064,0.041l0.018-0.005V21.408z M224.967,21.7
				l0.056,1.44l-0.675-0.667l0.596-0.774L224.967,21.7z M224.147,22.277l-0.776-0.765l1.419-0.066L224.147,22.277z M224.279,21.294
				l-1.068,0.059l-0.255-0.25l0.669,0.018l0,0L224.279,21.294z M223.104,20.982l-0.276-0.007l-0.092-0.091L223.104,20.982z
				 M222.489,21.091l0.114,0.003l0.253,0.279l-0.367,0.02V21.091z M222.489,24.188v-2.634l0.51-0.023l0.932,1.028l-1.23,1.592
				l0.037,0.018L222.489,24.188z M223.067,24.142l1.055-1.373l0.926,1.021l0.007,0.194L223.067,24.142z M227.214,23.813
				l-1.383,0.109l-0.076-0.061l-0.4-0.395l-0.101-1.755l0.041,0.002l0.125-0.035l1.806,2.12L227.214,23.813z M227.814,23.767
				l2.982-3.74l0.022,3.502L227.814,23.767z M231.08,20.202l0.129-0.199l1.293,1.263l-1.376,1.55L231.08,20.202z M232.053,20.43
				l0.878,0.354l-0.249,0.279L232.053,20.43z M233.209,23.339l-2.07,0.164l1.614-1.994l0.456,0.447V23.339z M233.209,21.597
				l-0.3-0.304l0.241-0.337l-0.082-0.115l0.141,0.057V21.597z M233.323,20.44l-1.938-0.702l-0.016-0.044l2.817,0.091l-0.859,0.652
				L233.323,20.44z M233.592,23.31l-0.033-1.013l0.962,0.939L233.592,23.31z"/>
		</defs>
		<clipPath id="SVGID_2_">
			<use xlink:href="#SVGID_1_"  overflow="visible"/>
		</clipPath>
		<circle clip-path="url(#SVGID_2_)" fill="#FFFFFF" cx="221.607" cy="24.291" r="13.712"/>
	</g>
	<circle fill="none" stroke="#FFFFFF" stroke-miterlimit="10" cx="221.594" cy="24.29" r="13.712"/>
</g>
</svg>
